<svg width="32" height="32" viewBox="0 0 32 32" fill="none" xmlns="http://www.w3.org/2000/svg">
<circle cx="15.9998" cy="16" r="12.8" transform="rotate(-180 15.9998 16)" fill="#F4F2FF"/>
<g clip-path="url(#clip0_2142_12879)">
<path d="M15.922 10.0047L16 10C16.1633 10 16.3209 10.06 16.4429 10.1685C16.5649 10.277 16.6429 10.4265 16.662 10.5887L16.6667 10.6667V15.3333H21.3333C21.4966 15.3334 21.6542 15.3933 21.7762 15.5018C21.8983 15.6103 21.9762 15.7598 21.9953 15.922L22 16C22 16.1633 21.94 16.3209 21.8315 16.4429C21.723 16.5649 21.5735 16.6429 21.4113 16.662L21.3333 16.6667H16.6667V21.3333C16.6666 21.4966 16.6067 21.6542 16.4982 21.7762C16.3897 21.8983 16.2402 21.9762 16.078 21.9953L16 22C15.8367 22 15.6791 21.94 15.5571 21.8315C15.4351 21.723 15.3571 21.5735 15.338 21.4113L15.3333 21.3333V16.6667H10.6667C10.5034 16.6666 10.3458 16.6067 10.2238 16.4982C10.1017 16.3897 10.0238 16.2402 10.0047 16.078L10 16C10 15.8367 10.06 15.6791 10.1685 15.5571C10.277 15.4351 10.4265 15.3571 10.5887 15.338L10.6667 15.3333H15.3333V10.6667C15.3334 10.5034 15.3933 10.3458 15.5018 10.2238C15.6103 10.1017 15.7598 10.0238 15.922 10.0047L16 10L15.922 10.0047Z" fill="#0F0F0F"/>
</g>
<defs>
<clipPath id="clip0_2142_12879">
<rect width="19.2" height="19.2" fill="white" transform="translate(6.3999 6.3999)"/>
</clipPath>
</defs>
</svg>
