<svg width="575" height="160" viewBox="0 0 575 160" fill="none" xmlns="http://www.w3.org/2000/svg">
<g opacity="0.3">
<path fill-rule="evenodd" clip-rule="evenodd" d="M497.425 162.008C497.127 161.504 496.908 161.162 496.714 160.803C493.427 154.738 490.163 148.658 486.84 142.611C486.364 141.744 486.379 141.092 486.85 140.235C490.168 134.187 493.436 128.108 496.723 122.042C496.916 121.686 497.138 121.344 497.415 120.878C497.686 121.319 497.91 121.647 498.097 121.995C501.406 128.102 504.694 134.222 508.035 140.31C508.488 141.135 508.473 141.747 508.028 142.563C504.689 148.654 501.4 154.771 498.093 160.88C497.923 161.198 497.725 161.503 497.425 162.008ZM497.423 118.859C497.149 119.312 496.949 119.614 496.777 119.93C493.083 126.755 489.395 133.586 485.695 140.408C485.353 141.035 485.171 141.546 485.579 142.291C489.419 149.298 493.204 156.332 497.011 163.358C497.095 163.515 497.211 163.654 497.386 163.907C497.603 163.615 497.807 163.402 497.941 163.151C501.707 156.207 505.457 149.255 509.237 142.32C509.584 141.687 509.598 141.2 509.248 140.559C505.444 133.583 501.671 126.592 497.887 119.607C497.78 119.411 497.651 119.224 497.423 118.859Z" fill="#D7D7D7"/>
<path fill-rule="evenodd" clip-rule="evenodd" d="M511.993 95.8004C512.197 95.4017 512.316 95.119 512.476 94.8604C516.18 88.831 519.901 82.8111 523.58 76.7657C523.999 76.0777 524.483 75.8671 525.239 75.8497C532.269 75.6791 539.301 75.4764 546.332 75.2857C546.673 75.2764 547.015 75.2844 547.483 75.2844C547.344 75.6244 547.299 75.7951 547.209 75.9391C543.387 82.1657 539.553 88.3844 535.748 94.6204C535.408 95.1777 534.988 95.3017 534.401 95.3177C527.279 95.5031 520.156 95.703 513.033 95.8937C512.739 95.903 512.439 95.8431 511.993 95.8004ZM510.157 96.9164C510.767 96.9164 511.163 96.9257 511.559 96.9151C519.229 96.7097 526.899 96.4951 534.569 96.3057C535.408 96.2871 535.985 96.0831 536.465 95.2977C540.545 88.5871 544.673 81.9071 548.785 75.2164C548.921 74.9937 549.027 74.7524 549.216 74.3817C548.841 74.3431 548.589 74.287 548.341 74.2924C540.444 74.511 532.545 74.7471 524.647 74.9404C523.871 74.9591 523.416 75.2084 523.008 75.8764C518.895 82.6204 514.749 89.3431 510.615 96.0737C510.496 96.2644 510.399 96.4684 510.157 96.9164Z" fill="#D7D7D7"/>
<path fill-rule="evenodd" clip-rule="evenodd" d="M447.34 75.347C447.673 75.3096 447.809 75.279 447.944 75.2816C455.249 75.4763 462.553 75.683 469.859 75.8563C470.561 75.8736 470.911 76.2083 471.244 76.7536C474.965 82.827 478.703 88.8896 482.428 94.9616C482.579 95.2043 482.643 95.5016 482.791 95.891C482.279 95.891 481.919 95.899 481.556 95.8883C474.572 95.6976 467.588 95.491 460.6 95.335C459.749 95.3163 459.303 94.971 458.887 94.291C455.248 88.327 451.581 82.3816 447.925 76.4283C447.741 76.1256 447.588 75.807 447.34 75.347ZM484.709 96.855C482.96 94.003 481.339 91.359 479.715 88.7163C477.108 84.4763 474.496 80.2416 471.9 75.9963C471.529 75.3923 471.184 74.9576 470.332 74.9376C462.343 74.7523 454.353 74.5123 446.365 74.291C446.187 74.2856 446.007 74.319 445.701 74.347C445.837 74.6776 445.915 74.9683 446.065 75.2163C450.172 81.9096 454.295 88.5936 458.389 95.2949C458.783 95.9376 459.207 96.2816 460.005 96.3003C467.949 96.4883 475.892 96.7136 483.837 96.9243C484.051 96.9296 484.267 96.8923 484.709 96.855Z" fill="#D7D7D7"/>
<path fill-rule="evenodd" clip-rule="evenodd" d="M382.84 95.8109C383.012 95.4376 383.112 95.1456 383.269 94.8909C386.973 88.8589 390.7 82.8416 394.371 76.7922C394.825 76.0456 395.367 75.8669 396.155 75.8469C403.048 75.6789 409.943 75.4802 416.837 75.2949C417.275 75.2816 417.713 75.2922 418.312 75.2922C418.149 75.6429 418.08 75.8496 417.971 76.0282C414.171 82.2149 410.361 88.3949 406.576 94.5896C406.244 95.1336 405.849 95.3029 405.247 95.3176C398.077 95.5003 390.911 95.7043 383.741 95.8976C383.484 95.9043 383.225 95.8509 382.84 95.8109ZM420.028 74.3683C419.621 74.3336 419.365 74.2869 419.108 74.2949C411.211 74.5122 403.313 74.7442 395.416 74.9442C394.7 74.9629 394.253 75.1669 393.868 75.7976C389.729 82.5763 385.561 89.3402 381.403 96.1096C381.288 96.2976 381.199 96.5003 381.025 96.8349C381.465 96.8696 381.804 96.9269 382.14 96.9189C389.901 96.7149 397.661 96.4936 405.423 96.3069C406.283 96.2869 406.827 96.0309 407.297 95.2589C411.329 88.6269 415.408 82.0229 419.469 75.4096C419.649 75.1149 419.799 74.7976 420.028 74.3683Z" fill="#D7D7D7"/>
<path fill-rule="evenodd" clip-rule="evenodd" d="M406.129 113.091C410.204 119.723 414.255 126.312 418.395 133.051C417.928 133.082 417.712 133.115 417.497 133.108C410.284 132.914 403.072 132.707 395.857 132.536C395.099 132.519 394.729 132.162 394.368 131.572C390.676 125.534 386.96 119.511 383.257 113.479C383.103 113.227 383.015 112.932 382.804 112.452C390.687 112.668 398.384 112.879 406.129 113.091ZM381 111.514C381.283 112.023 381.463 112.379 381.669 112.718C385.684 119.254 389.712 125.78 393.7 132.332C394.183 133.124 394.715 133.436 395.653 133.459C403.416 133.639 411.175 133.879 418.935 134.096C419.243 134.106 419.551 134.068 420.003 134.044C419.824 133.667 419.72 133.383 419.567 133.131C415.48 126.478 411.381 119.834 407.311 113.171C406.895 112.49 406.449 112.111 405.597 112.091C397.653 111.904 389.711 111.678 381.767 111.466C381.588 111.462 381.407 111.487 381 111.514Z" fill="#D7D7D7"/>
<path fill-rule="evenodd" clip-rule="evenodd" d="M447.408 133.078C447.499 132.796 447.517 132.658 447.583 132.55C451.425 126.284 455.281 120.026 459.109 113.75C459.452 113.187 459.889 113.088 460.468 113.074C467.589 112.888 474.711 112.688 481.832 112.499C482.127 112.491 482.421 112.552 482.864 112.596C482.572 113.127 482.373 113.523 482.144 113.9C478.584 119.698 474.999 125.48 471.477 131.3C470.937 132.19 470.356 132.54 469.308 132.562C462.777 132.692 456.252 132.9 449.723 133.076C448.995 133.096 448.267 133.078 447.408 133.078ZM445.629 134.03C446.08 134.062 446.381 134.107 446.683 134.099C454.488 133.88 462.295 133.651 470.1 133.442C470.819 133.422 471.357 133.316 471.793 132.6C475.947 125.774 480.144 118.975 484.327 112.168C484.419 112.02 484.476 111.85 484.608 111.559C484.189 111.523 483.853 111.463 483.517 111.471C475.756 111.676 467.996 111.899 460.235 112.086C459.377 112.107 458.829 112.359 458.359 113.134C454.301 119.803 450.197 126.446 446.111 133.096C445.953 133.354 445.832 133.634 445.629 134.03Z" fill="#D7D7D7"/>
<path fill-rule="evenodd" clip-rule="evenodd" d="M482.916 170.399C482.355 170.399 481.963 170.408 481.571 170.398C474.629 170.207 467.687 170.003 460.744 169.843C459.864 169.823 459.348 169.522 458.888 168.766C455.281 162.834 451.629 156.928 447.996 151.014C447.791 150.678 447.627 150.316 447.381 149.852C447.877 149.826 448.229 149.784 448.58 149.795C455.612 149.983 462.644 150.191 469.679 150.355C470.468 150.372 470.908 150.648 471.309 151.307C474.971 157.314 478.663 163.3 482.343 169.295C482.525 169.592 482.668 169.915 482.916 170.399ZM484.713 171.324C482.652 167.971 480.717 164.822 478.783 161.672C476.463 157.9 474.132 154.134 471.831 150.35C471.469 149.754 471.085 149.406 470.335 149.388C462.3 149.196 454.264 148.976 446.229 148.768C446.097 148.764 445.965 148.804 445.697 148.844C445.856 149.198 445.965 149.526 446.141 149.814C450.225 156.468 454.321 163.115 458.395 169.776C458.785 170.414 459.209 170.73 460.012 170.747C467.911 170.938 475.808 171.175 483.704 171.394C483.967 171.402 484.228 171.359 484.713 171.324Z" fill="#D7D7D7"/>
<path fill-rule="evenodd" clip-rule="evenodd" d="M512.012 112.595C512.356 112.548 512.566 112.488 512.775 112.494C520.034 112.688 527.292 112.896 534.551 113.068C535.22 113.083 535.519 113.411 535.819 113.903C539.567 120.014 543.326 126.118 547.074 132.228C547.22 132.467 547.283 132.758 547.419 133.108C547 133.108 546.728 133.115 546.455 133.107C539.379 132.914 532.304 132.707 525.226 132.546C524.378 132.526 523.926 132.184 523.504 131.494C519.867 125.53 516.198 119.586 512.54 113.634C512.362 113.338 512.224 113.015 512.012 112.595ZM510.171 111.518C510.499 112.088 510.712 112.482 510.947 112.863C514.914 119.32 518.903 125.764 522.827 132.247C523.376 133.158 523.988 133.438 525.012 133.462C532.682 133.636 540.35 133.875 548.019 134.09C548.366 134.099 548.712 134.062 549.22 134.038C548.966 133.562 548.796 133.207 548.591 132.874C544.554 126.299 540.504 119.732 536.486 113.144C536.062 112.451 535.592 112.111 534.756 112.091C526.859 111.902 518.963 111.678 511.064 111.467C510.842 111.46 510.619 111.49 510.171 111.518Z" fill="#D7D7D7"/>
<path fill-rule="evenodd" clip-rule="evenodd" d="M447.393 58.5191C447.629 58.0684 447.793 57.7057 448.001 57.3697C451.611 51.4937 455.244 45.6311 458.82 39.7351C459.333 38.8911 459.913 38.5631 460.889 38.5417C467.739 38.3884 474.589 38.1831 481.439 37.9991C481.873 37.9871 482.311 37.9978 482.863 37.9978C482.748 38.3124 482.713 38.4897 482.625 38.6351C478.804 44.8617 474.972 51.0858 471.163 57.3204C470.827 57.8698 470.405 58.0084 469.811 58.0231C462.64 58.2084 455.471 58.4137 448.301 58.6071C448.043 58.6137 447.784 58.5591 447.393 58.5191ZM484.629 37.0711C484.28 37.0377 484.063 36.9951 483.847 37.0004C475.857 37.2204 467.867 37.4484 459.876 37.6564C459.273 37.6724 458.876 37.8418 458.545 38.3831C454.353 45.2404 450.14 52.0831 445.936 58.9324C445.845 59.0778 445.795 59.2471 445.664 59.5444C446.145 59.5751 446.531 59.6284 446.915 59.6178C454.631 59.4164 462.345 59.2031 470.063 59.0057C470.777 58.9871 471.333 58.8778 471.767 58.1644C475.971 51.2604 480.213 44.3818 484.444 37.4951C484.491 37.4191 484.517 37.3311 484.629 37.0711Z" fill="#D7D7D7"/>
<path fill-rule="evenodd" clip-rule="evenodd" d="M497.423 87.4964C497.228 87.2004 497.089 87.0217 496.983 86.827C493.543 80.479 490.116 74.1244 486.655 67.7897C486.293 67.1284 486.387 66.6377 486.721 66.023C490.111 59.803 493.471 53.5684 496.845 47.3417C497.003 47.0537 497.223 46.799 497.468 46.4537C497.728 46.8924 497.923 47.1977 498.095 47.5164C501.403 53.6244 504.691 59.743 508.029 65.8337C508.476 66.6497 508.485 67.2617 508.033 68.0857C504.692 74.175 501.405 80.2924 498.095 86.4004C497.908 86.7457 497.684 87.0724 497.423 87.4964ZM497.447 89.519C497.736 89.019 497.949 88.6724 498.143 88.3137C501.795 81.5684 505.428 74.815 509.113 68.0884C509.563 67.2684 509.564 66.6564 509.116 65.839C505.413 59.071 501.756 52.2764 498.083 45.4897C497.912 45.175 497.715 44.8724 497.455 44.4404C497.199 44.819 496.981 45.0857 496.821 45.383C493.103 52.247 489.395 59.1177 485.671 65.979C485.352 66.5657 485.168 67.0537 485.54 67.7377C489.392 74.7924 493.205 81.8644 497.033 88.9297C497.119 89.0857 497.239 89.2244 497.447 89.519Z" fill="#D7D7D7"/>
<path fill-rule="evenodd" clip-rule="evenodd" d="M573.132 104.107C571.925 106.93 562.649 123.795 561.867 124.547C558.189 117.748 554.523 110.972 550.856 104.192C554.556 97.3564 558.219 90.5911 562.017 83.5764C565.824 90.6097 569.488 97.3791 573.132 104.107ZM561.973 126.747C562.319 126.183 562.543 125.855 562.732 125.507C566.387 118.759 570.031 112.006 573.701 105.267C574.083 104.572 574.2 104.022 573.784 103.262C570.035 96.4111 566.329 89.5324 562.609 82.6657C562.463 82.3951 562.285 82.1404 561.977 81.6457C557.855 89.2617 553.824 96.7057 549.771 104.194C553.804 111.648 557.821 119.075 561.973 126.747Z" fill="#D7D7D7"/>
<path fill-rule="evenodd" clip-rule="evenodd" d="M432.827 124.818C429.009 117.76 425.329 110.963 421.697 104.248C424.061 99.3029 432.101 84.7149 432.971 83.8336C436.651 90.6349 440.316 97.4109 443.989 104.199C440.295 111.024 436.632 117.792 432.827 124.818ZM445.075 104.199C441.04 96.7443 437.023 89.3163 432.928 81.7496C432.668 82.0736 432.447 82.2763 432.312 82.523C428.545 89.471 424.791 96.4243 421.023 103.37C420.745 103.88 420.621 104.3 420.939 104.883C424.809 111.98 428.649 119.095 432.504 126.203C432.564 126.312 432.675 126.396 432.915 126.659C436.991 119.13 441.021 111.686 445.075 104.199Z" fill="#D7D7D7"/>
</g>
<g opacity="0.3">
<path fill-rule="evenodd" clip-rule="evenodd" d="M76.6209 125.008C76.9196 124.504 77.1382 124.162 77.3329 123.803C80.6196 117.738 83.8836 111.658 87.2062 105.611C87.6822 104.744 87.6676 104.092 87.1969 103.235C83.8782 97.187 80.6102 91.1083 77.3236 85.0416C77.1302 84.6856 76.9089 84.3443 76.6316 83.8776C76.3609 84.319 76.1369 84.647 75.9489 84.995C72.6409 91.1016 69.3529 97.2216 66.0115 103.31C65.5582 104.135 65.5729 104.747 66.0182 105.563C69.3569 111.654 72.6462 117.771 75.9529 123.88C76.1236 124.198 76.3209 124.503 76.6209 125.008ZM76.6236 81.859C76.8969 82.3123 77.0969 82.6136 77.2689 82.9296C80.9636 89.755 84.6516 96.5856 88.3516 103.408C88.6929 104.035 88.8756 104.546 88.4676 105.291C84.6276 112.298 80.8422 119.332 77.0356 126.358C76.9516 126.515 76.8355 126.654 76.6609 126.907C76.4435 126.615 76.2396 126.402 76.1049 126.151C72.3396 119.207 68.5889 112.255 64.8089 105.32C64.4622 104.687 64.4489 104.2 64.7982 103.559C68.6022 96.583 72.3756 89.5923 76.1596 82.607C76.2662 82.411 76.3956 82.2243 76.6236 81.859Z" fill="#D7D7D7"/>
<path fill-rule="evenodd" clip-rule="evenodd" d="M62.053 58.8004C61.849 58.4017 61.7303 58.119 61.5703 57.8604C57.8663 51.831 54.145 45.8111 50.4663 39.7657C50.0477 39.0777 49.5637 38.8671 48.8077 38.8497C41.777 38.6791 34.745 38.4764 27.7143 38.2857C27.373 38.2764 27.0317 38.2844 26.5637 38.2844C26.7023 38.6244 26.7477 38.7951 26.837 38.9391C30.6597 45.1657 34.493 51.3844 38.2983 57.6204C38.6383 58.1777 39.0583 58.3017 39.645 58.3177C46.7677 58.5031 53.8903 58.703 61.013 58.8937C61.3077 58.903 61.6077 58.8431 62.053 58.8004ZM63.889 59.9164C63.2797 59.9164 62.8837 59.9257 62.4877 59.9151C54.817 59.7097 47.1477 59.4951 39.477 59.3057C38.6383 59.2871 38.061 59.0831 37.581 58.2977C33.501 51.5871 29.373 44.9071 25.261 38.2164C25.125 37.9937 25.0197 37.7524 24.8303 37.3817C25.205 37.3431 25.457 37.287 25.705 37.2924C33.6023 37.511 41.501 37.7471 49.3997 37.9404C50.1757 37.9591 50.6303 38.2084 51.0383 38.8764C55.1517 45.6204 59.297 52.3431 63.4317 59.0737C63.5503 59.2644 63.6477 59.4684 63.889 59.9164Z" fill="#D7D7D7"/>
<path fill-rule="evenodd" clip-rule="evenodd" d="M126.706 38.347C126.373 38.3096 126.237 38.279 126.102 38.2816C118.797 38.4763 111.493 38.683 104.188 38.8563C103.485 38.8736 103.136 39.2083 102.802 39.7536C99.0809 45.827 95.3436 51.8896 91.6182 57.9616C91.4676 58.2043 91.4036 58.5016 91.2556 58.891C91.7676 58.891 92.1276 58.899 92.4903 58.8883C99.4742 58.6976 106.458 58.491 113.446 58.335C114.297 58.3163 114.744 57.971 115.16 57.291C118.798 51.327 122.465 45.3816 126.121 39.4283C126.305 39.1256 126.458 38.807 126.706 38.347ZM89.3369 59.855C91.0862 57.003 92.7076 54.359 94.3316 51.7163C96.9382 47.4763 99.5502 43.2416 102.146 38.9963C102.517 38.3923 102.862 37.9576 103.714 37.9376C111.704 37.7523 119.693 37.5123 127.681 37.291C127.86 37.2856 128.04 37.319 128.345 37.347C128.209 37.6776 128.132 37.9683 127.981 38.2163C123.874 44.9096 119.752 51.5936 115.657 58.2949C115.264 58.9376 114.84 59.2816 114.041 59.3003C106.097 59.4883 98.1543 59.7136 90.2089 59.9243C89.9956 59.9296 89.7796 59.8923 89.3369 59.855Z" fill="#D7D7D7"/>
<path fill-rule="evenodd" clip-rule="evenodd" d="M191.206 58.8109C191.034 58.4376 190.934 58.1456 190.777 57.8909C187.073 51.8589 183.346 45.8416 179.676 39.7922C179.221 39.0456 178.68 38.8669 177.892 38.8469C170.998 38.6789 164.104 38.4802 157.209 38.2949C156.772 38.2816 156.333 38.2922 155.734 38.2922C155.897 38.6429 155.966 38.8496 156.076 39.0282C159.876 45.2149 163.685 51.3949 167.47 57.5896C167.802 58.1336 168.197 58.3029 168.8 58.3176C175.969 58.5003 183.136 58.7043 190.305 58.8976C190.562 58.9043 190.821 58.8509 191.206 58.8109ZM154.018 37.3683C154.425 37.3336 154.681 37.2869 154.938 37.2949C162.836 37.5122 170.733 37.7442 178.63 37.9442C179.346 37.9629 179.793 38.1669 180.178 38.7976C184.317 45.5763 188.485 52.3402 192.644 59.1096C192.758 59.2976 192.848 59.5003 193.021 59.8349C192.581 59.8696 192.242 59.9269 191.906 59.9189C184.145 59.7149 176.385 59.4936 168.624 59.3069C167.764 59.2869 167.22 59.0309 166.749 58.2589C162.717 51.6269 158.638 45.0229 154.577 38.4096C154.397 38.1149 154.248 37.7976 154.018 37.3683Z" fill="#D7D7D7"/>
<path fill-rule="evenodd" clip-rule="evenodd" d="M167.917 76.0911C163.842 82.7231 159.792 89.3124 155.652 96.0511C156.118 96.0818 156.334 96.1151 156.549 96.1084C163.762 95.9138 170.974 95.7071 178.189 95.5364C178.948 95.5191 179.317 95.1618 179.678 94.5724C183.37 88.5338 187.086 82.5111 190.789 76.4791C190.944 76.2271 191.032 75.9324 191.242 75.4524C183.36 75.6684 175.662 75.8791 167.917 76.0911ZM193.046 74.5138C192.764 75.0231 192.584 75.3791 192.377 75.7178C188.362 82.2538 184.334 88.7804 180.346 95.3324C179.864 96.1244 179.332 96.4364 178.393 96.4591C170.63 96.6391 162.872 96.8791 155.112 97.0964C154.804 97.1058 154.496 97.0684 154.044 97.0444C154.222 96.6671 154.326 96.3831 154.48 96.1311C158.566 89.4778 162.665 82.8338 166.736 76.1711C167.152 75.4898 167.597 75.1111 168.449 75.0911C176.393 74.9044 184.336 74.6778 192.28 74.4658C192.458 74.4618 192.64 74.4871 193.046 74.5138Z" fill="#D7D7D7"/>
<path fill-rule="evenodd" clip-rule="evenodd" d="M126.638 96.0776C126.548 95.7963 126.529 95.6576 126.464 95.5496C122.621 89.2843 118.765 83.0256 114.937 76.7496C114.594 76.1869 114.157 76.0883 113.578 76.0736C106.457 75.8883 99.3356 75.6883 92.2142 75.4989C91.9196 75.4909 91.6249 75.5523 91.1822 75.5963C91.4742 76.1269 91.6729 76.5229 91.9022 76.9003C95.4622 82.6976 99.0476 88.4803 102.569 94.3003C103.109 95.1896 103.69 95.5403 104.738 95.5616C111.269 95.6923 117.794 95.9003 124.324 96.0763C125.052 96.0963 125.78 96.0776 126.638 96.0776ZM128.417 97.0296C127.966 97.0616 127.665 97.1069 127.364 97.0989C119.558 96.8803 111.752 96.6509 103.946 96.4416C103.228 96.4216 102.689 96.3163 102.253 95.6003C98.0996 88.7736 93.9022 81.9749 89.7196 75.1683C89.6276 75.0203 89.5702 74.8496 89.4382 74.5589C89.8569 74.5229 90.1929 74.4629 90.5289 74.4709C98.2902 74.6763 106.05 74.8989 113.812 75.0856C114.669 75.1069 115.217 75.3589 115.688 76.1336C119.745 82.8029 123.849 89.4456 127.936 96.0963C128.093 96.3536 128.214 96.6336 128.417 97.0296Z" fill="#D7D7D7"/>
<path fill-rule="evenodd" clip-rule="evenodd" d="M91.1303 133.399C91.6917 133.399 92.0837 133.408 92.4757 133.398C99.417 133.207 106.36 133.003 113.302 132.843C114.182 132.823 114.698 132.522 115.158 131.766C118.765 125.834 122.417 119.928 126.05 114.014C126.256 113.678 126.42 113.316 126.665 112.852C126.169 112.826 125.817 112.784 125.466 112.795C118.434 112.983 111.402 113.191 104.368 113.355C103.578 113.372 103.138 113.648 102.737 114.307C99.0757 120.314 95.3837 126.3 91.7037 132.295C91.521 132.592 91.3783 132.915 91.1303 133.399ZM89.333 134.324C91.3943 130.971 93.329 127.822 95.2637 124.672C97.5837 120.9 99.9143 117.134 102.216 113.35C102.577 112.754 102.961 112.406 103.712 112.388C111.746 112.196 119.782 111.976 127.817 111.768C127.949 111.764 128.081 111.804 128.349 111.844C128.19 112.198 128.081 112.526 127.905 112.814C123.821 119.468 119.725 126.115 115.652 132.776C115.261 133.414 114.837 133.73 114.034 133.747C106.136 133.938 98.2383 134.175 90.3424 134.394C90.0797 134.402 89.8183 134.359 89.333 134.324Z" fill="#D7D7D7"/>
<path fill-rule="evenodd" clip-rule="evenodd" d="M62.0342 75.5949C61.6902 75.5483 61.4808 75.4883 61.2715 75.4936C54.0128 75.6883 46.7542 75.8963 39.4955 76.0683C38.8262 76.0829 38.5275 76.4109 38.2275 76.9029C34.4795 83.0136 30.7208 89.1176 26.9728 95.2283C26.8262 95.4669 26.7635 95.7576 26.6275 96.1083C27.0462 96.1083 27.3182 96.1149 27.5915 96.1069C34.6675 95.9136 41.7422 95.7069 48.8208 95.5456C49.6688 95.5256 50.1208 95.1843 50.5422 94.4936C54.1795 88.5296 57.8488 82.5856 61.5062 76.6336C61.6848 76.3376 61.8222 76.0149 62.0342 75.5949ZM63.8755 74.5176C63.5475 75.0883 63.3342 75.4816 63.0995 75.8629C59.1328 82.3203 55.1435 88.7643 51.2195 95.2469C50.6702 96.1576 50.0582 96.4376 49.0342 96.4616C41.3648 96.6363 33.6968 96.8749 26.0275 97.0896C25.6808 97.0989 25.3342 97.0616 24.8262 97.0376C25.0808 96.5616 25.2502 96.2069 25.4555 95.8736C29.4928 89.2989 33.5422 82.7323 37.5608 76.1443C37.9848 75.4509 38.4542 75.1109 39.2902 75.0909C47.1875 74.9016 55.0835 74.6776 62.9822 74.4669C63.2048 74.4603 63.4275 74.4896 63.8755 74.5176Z" fill="#D7D7D7"/>
<path fill-rule="evenodd" clip-rule="evenodd" d="M126.653 21.5191C126.417 21.0684 126.253 20.7057 126.045 20.3697C122.436 14.4937 118.802 8.63107 115.226 2.73507C114.713 1.89107 114.133 1.56308 113.157 1.54174C106.308 1.38841 99.457 1.1831 92.6077 0.9991C92.173 0.987099 91.7357 0.997765 91.1837 0.997765C91.2983 1.31243 91.333 1.48974 91.421 1.63507C95.2423 7.86174 99.0743 14.0858 102.884 20.3204C103.22 20.8698 103.641 21.0084 104.236 21.0231C111.406 21.2084 118.576 21.4137 125.745 21.6071C126.004 21.6137 126.262 21.5591 126.653 21.5191ZM89.417 0.0710716C89.7663 0.0377388 89.9837 -0.0049324 90.1997 0.000402451C98.189 0.220402 106.18 0.448423 114.17 0.656424C114.773 0.672424 115.17 0.841751 115.501 1.38308C119.693 8.24042 123.906 15.0831 128.11 21.9324C128.201 22.0778 128.252 22.2471 128.382 22.5444C127.901 22.5751 127.516 22.6284 127.132 22.6178C119.416 22.4164 111.701 22.2031 103.984 22.0057C103.269 21.9871 102.713 21.8778 102.28 21.1644C98.0757 14.2604 93.833 7.38176 89.6023 0.495096C89.5557 0.419096 89.529 0.331072 89.417 0.0710716Z" fill="#D7D7D7"/>
<path fill-rule="evenodd" clip-rule="evenodd" d="M76.6237 50.4964C76.8184 50.2004 76.957 50.0217 77.0637 49.827C80.5037 43.479 83.9304 37.1244 87.3917 30.7897C87.7531 30.1284 87.6597 29.6377 87.3251 29.023C83.9357 22.803 80.5757 16.5684 77.2011 10.3417C77.0437 10.0537 76.8237 9.79905 76.5784 9.45371C76.3184 9.89238 76.1237 10.1977 75.9517 10.5164C72.6437 16.6244 69.3557 22.743 66.0171 28.8337C65.5704 29.6497 65.561 30.2617 66.013 31.0857C69.3544 37.175 72.6411 43.2924 75.9517 49.4004C76.1384 49.7457 76.3624 50.0724 76.6237 50.4964ZM76.5997 52.519C76.3104 52.019 76.0971 51.6724 75.9037 51.3137C72.2517 44.5684 68.6184 37.815 64.9331 31.0884C64.4837 30.2684 64.4824 29.6564 64.9304 28.839C68.633 22.071 72.2904 15.2764 75.9637 8.48972C76.1344 8.17505 76.3317 7.87237 76.5917 7.44037C76.8477 7.81903 77.0651 8.08571 77.2251 8.38304C80.9437 15.247 84.6517 22.1177 88.3757 28.979C88.6944 29.5657 88.8784 30.0537 88.5064 30.7377C84.6544 37.7924 80.841 44.8644 77.013 51.9297C76.9277 52.0857 76.8077 52.2244 76.5997 52.519Z" fill="#D7D7D7"/>
<path fill-rule="evenodd" clip-rule="evenodd" d="M0.914308 67.1071C2.12097 69.9297 11.397 86.7951 12.1796 87.5471C15.857 80.7484 19.5236 73.9724 23.1903 67.1924C19.4903 60.3564 15.8276 53.5911 12.029 46.5764C8.22231 53.6097 4.55831 60.3791 0.914308 67.1071ZM12.073 89.7471C11.7276 89.1831 11.5036 88.8551 11.3143 88.5071C7.65964 81.7591 4.01564 75.0057 0.344972 68.2671C-0.0363616 67.5724 -0.153694 67.0217 0.262306 66.2617C4.01164 59.4111 7.71698 52.5324 11.437 45.6657C11.5836 45.3951 11.761 45.1404 12.069 44.6457C16.1916 52.2617 20.2223 59.7057 24.2757 67.1937C20.2423 74.6484 16.225 82.0751 12.073 89.7471Z" fill="#D7D7D7"/>
<path fill-rule="evenodd" clip-rule="evenodd" d="M141.22 87.8176C145.037 80.7603 148.717 73.9629 152.349 67.2483C149.985 62.3029 141.945 47.7149 141.076 46.8336C137.396 53.6349 133.73 60.4109 130.057 67.1989C133.752 74.0243 137.414 80.7923 141.22 87.8176ZM128.972 67.1989C133.006 59.7443 137.024 52.3163 141.118 44.7496C141.378 45.0736 141.6 45.2763 141.734 45.523C145.501 52.471 149.256 59.4243 153.024 66.3696C153.301 66.8803 153.425 67.3003 153.108 67.8829C149.237 74.9803 145.397 82.0949 141.542 89.2029C141.482 89.3123 141.372 89.3963 141.132 89.6589C137.056 82.1296 133.025 74.6856 128.972 67.1989Z" fill="#D7D7D7"/>
</g>
</svg>
