<svg width="300" height="81" viewBox="0 0 300 81" fill="none" xmlns="http://www.w3.org/2000/svg">
<path d="M0 16.2002C0 7.36365 7.16344 0.200195 16 0.200195H284C292.837 0.200195 300 7.36364 300 16.2002V81.4002H0V16.2002Z" fill="white"/>
<rect width="300" height="81.2" transform="translate(0 0.200195)" fill="white"/>
<rect x="20" y="9.80005" width="260" height="28.6" rx="12" fill="#1C1C1C"/>
<path d="M117.336 23.3761C117.336 22.3841 118.136 21.7121 119.328 21.7121C120.432 21.7121 121.144 22.3281 121.208 23.3281H120.416C120.376 22.7521 119.968 22.4161 119.32 22.4161C118.592 22.4161 118.12 22.7841 118.12 23.3521C118.12 23.8161 118.384 24.0961 118.928 24.2241L119.88 24.4481C120.824 24.6641 121.304 25.1761 121.304 25.9921C121.304 27.0321 120.496 27.6961 119.264 27.6961C118.088 27.6961 117.304 27.0801 117.256 26.0881H118.056C118.072 26.6401 118.536 26.9921 119.264 26.9921C120.032 26.9921 120.52 26.6321 120.52 26.0561C120.52 25.6001 120.272 25.3121 119.72 25.1841L118.768 24.9681C117.824 24.7521 117.336 24.2081 117.336 23.3761ZM123.625 27.6961C122.785 27.6961 122.289 27.2241 122.289 26.5121C122.289 25.7921 122.825 25.3441 123.745 25.2721L124.977 25.1761V25.0641C124.977 24.4081 124.585 24.1761 124.057 24.1761C123.425 24.1761 123.065 24.4561 123.065 24.9281H122.409C122.409 24.1121 123.081 23.5761 124.089 23.5761C125.057 23.5761 125.713 24.0881 125.713 25.1441V27.6001H125.073L124.993 26.9681C124.793 27.4161 124.257 27.6961 123.625 27.6961ZM123.841 27.1121C124.553 27.1121 124.985 26.6481 124.985 25.9121V25.7041L123.985 25.7841C123.321 25.8481 123.049 26.1041 123.049 26.4881C123.049 26.9041 123.353 27.1121 123.841 27.1121ZM128.014 27.6001L126.438 23.6881H127.238L128.094 25.8721C128.23 26.2401 128.342 26.5681 128.406 26.8081C128.47 26.5521 128.598 26.2161 128.734 25.8721L129.606 23.6881H130.39L128.758 27.6001H128.014ZM132.817 27.6961C131.665 27.6961 130.873 26.8641 130.873 25.6481C130.873 24.4241 131.649 23.5761 132.785 23.5761C133.897 23.5761 134.625 24.3441 134.625 25.5041V25.7841L131.601 25.7921C131.657 26.6161 132.089 27.0721 132.833 27.0721C133.417 27.0721 133.801 26.8321 133.929 26.3841H134.633C134.441 27.2241 133.785 27.6961 132.817 27.6961ZM132.785 24.2081C132.129 24.2081 131.713 24.6001 131.617 25.2881H133.873C133.873 24.6401 133.449 24.2081 132.785 24.2081ZM139.396 27.6001H138.644V24.3201H137.876V23.6881H138.644V22.4641H139.396V23.6881H140.164V24.3201H139.396V27.6001ZM140.864 25.6401C140.864 24.4321 141.728 23.5841 142.904 23.5841C144.072 23.5841 144.936 24.4321 144.936 25.6401C144.936 26.8481 144.072 27.6961 142.904 27.6961C141.728 27.6961 140.864 26.8481 140.864 25.6401ZM141.624 25.6401C141.624 26.4561 142.144 27.0241 142.904 27.0241C143.656 27.0241 144.184 26.4561 144.184 25.6401C144.184 24.8241 143.656 24.2561 142.904 24.2561C142.144 24.2561 141.624 24.8241 141.624 25.6401ZM151.124 27.6881C149.476 27.6881 148.38 26.5041 148.38 24.7121C148.38 22.9281 149.508 21.7201 151.164 21.7201C152.468 21.7201 153.468 22.4961 153.684 23.6801H152.844C152.628 22.9281 151.98 22.4721 151.14 22.4721C149.972 22.4721 149.204 23.3521 149.204 24.7041C149.204 26.0561 149.972 26.9361 151.14 26.9361C151.988 26.9361 152.66 26.4801 152.876 25.7681H153.708C153.46 26.9201 152.428 27.6881 151.124 27.6881ZM154.606 25.6401C154.606 24.4321 155.47 23.5841 156.646 23.5841C157.814 23.5841 158.678 24.4321 158.678 25.6401C158.678 26.8481 157.814 27.6961 156.646 27.6961C155.47 27.6961 154.606 26.8481 154.606 25.6401ZM155.366 25.6401C155.366 26.4561 155.886 27.0241 156.646 27.0241C157.398 27.0241 157.926 26.4561 157.926 25.6401C157.926 24.8241 157.398 24.2561 156.646 24.2561C155.886 24.2561 155.366 24.8241 155.366 25.6401ZM160.582 27.6001H159.83V23.6881H160.51L160.59 24.2881C160.838 23.8401 161.334 23.5761 161.886 23.5761C162.918 23.5761 163.39 24.2081 163.39 25.2081V27.6001H162.638V25.3761C162.638 24.5841 162.27 24.2641 161.694 24.2641C160.99 24.2641 160.582 24.7681 160.582 25.5281V27.6001ZM165.856 27.6001H165.104V24.3201H164.336V23.6881H165.104V22.4641H165.856V23.6881H166.624V24.3201H165.856V27.6001ZM168.716 27.6961C167.876 27.6961 167.38 27.2241 167.38 26.5121C167.38 25.7921 167.916 25.3441 168.836 25.2721L170.068 25.1761V25.0641C170.068 24.4081 169.676 24.1761 169.148 24.1761C168.516 24.1761 168.156 24.4561 168.156 24.9281H167.5C167.5 24.1121 168.172 23.5761 169.18 23.5761C170.148 23.5761 170.804 24.0881 170.804 25.1441V27.6001H170.164L170.084 26.9681C169.884 27.4161 169.348 27.6961 168.716 27.6961ZM168.932 27.1121C169.644 27.1121 170.076 26.6481 170.076 25.9121V25.7041L169.076 25.7841C168.412 25.8481 168.14 26.1041 168.14 26.4881C168.14 26.9041 168.444 27.1121 168.932 27.1121ZM171.909 25.6481C171.909 24.4241 172.685 23.5761 173.829 23.5761C174.813 23.5761 175.501 24.1361 175.637 25.0081H174.885C174.757 24.5121 174.357 24.2481 173.853 24.2481C173.141 24.2481 172.653 24.7921 172.653 25.6401C172.653 26.4801 173.109 27.0241 173.821 27.0241C174.357 27.0241 174.757 26.7441 174.893 26.2801H175.645C175.493 27.1281 174.765 27.6961 173.821 27.6961C172.669 27.6961 171.909 26.8801 171.909 25.6481ZM177.862 27.6001H177.11V24.3201H176.342V23.6881H177.11V22.4641H177.862V23.6881H178.63V24.3201H177.862V27.6001ZM179.305 26.4641H180.025C180.025 26.8641 180.329 27.1041 180.825 27.1041C181.353 27.1041 181.657 26.8881 181.657 26.5281C181.657 26.2641 181.529 26.1041 181.121 26.0001L180.433 25.8401C179.737 25.6721 179.409 25.3281 179.409 24.7521C179.409 24.0321 180.017 23.5761 180.881 23.5761C181.737 23.5761 182.297 24.0561 182.313 24.8001H181.593C181.577 24.4081 181.313 24.1601 180.857 24.1601C180.385 24.1601 180.121 24.3681 180.121 24.7281C180.121 24.9921 180.313 25.1681 180.697 25.2641L181.385 25.4321C182.049 25.5921 182.377 25.8961 182.377 26.4801C182.377 27.2241 181.737 27.6961 180.809 27.6961C179.889 27.6961 179.305 27.2081 179.305 26.4641Z" fill="white"/>
<rect x="20" y="43.2002" width="260" height="28.6" rx="12" fill="#007DFC"/>
<path d="M118.2 61.0002H114.672V55.2162H118.2V55.9362H115.456V57.7442H117.928V58.4402H115.456V60.2722H118.2V61.0002ZM119.928 61.0002H119.064L120.432 59.0642L119.072 57.0882H119.944L120.936 58.5442L121.904 57.0882H122.76L121.4 59.0642L122.736 61.0002H121.864L120.888 59.5682L119.928 61.0002ZM123.303 59.0482C123.303 57.8242 124.079 56.9762 125.223 56.9762C126.207 56.9762 126.895 57.5362 127.031 58.4082H126.279C126.151 57.9122 125.751 57.6482 125.247 57.6482C124.535 57.6482 124.047 58.1922 124.047 59.0402C124.047 59.8802 124.503 60.4242 125.215 60.4242C125.751 60.4242 126.151 60.1442 126.287 59.6802H127.039C126.887 60.5282 126.159 61.0962 125.215 61.0962C124.063 61.0962 123.303 60.2802 123.303 59.0482ZM128.904 60.9922H128.152V55.1122H128.904V57.6882C129.152 57.2642 129.624 56.9762 130.232 56.9762C131.232 56.9762 131.712 57.6082 131.712 58.6082V61.0002H130.96V58.7762C130.96 57.9842 130.584 57.6642 130.024 57.6642C129.296 57.6642 128.904 58.1922 128.904 58.8642V60.9922ZM134.218 61.0962C133.378 61.0962 132.882 60.6242 132.882 59.9122C132.882 59.1922 133.418 58.7442 134.338 58.6722L135.57 58.5762V58.4642C135.57 57.8082 135.178 57.5762 134.65 57.5762C134.018 57.5762 133.658 57.8562 133.658 58.3282H133.002C133.002 57.5122 133.674 56.9762 134.682 56.9762C135.65 56.9762 136.306 57.4882 136.306 58.5442V61.0002H135.666L135.586 60.3682C135.386 60.8162 134.85 61.0962 134.218 61.0962ZM134.434 60.5122C135.146 60.5122 135.578 60.0482 135.578 59.3122V59.1042L134.578 59.1842C133.914 59.2482 133.642 59.5042 133.642 59.8882C133.642 60.3042 133.946 60.5122 134.434 60.5122ZM138.419 61.0002H137.667V57.0882H138.347L138.427 57.6882C138.675 57.2402 139.171 56.9762 139.723 56.9762C140.755 56.9762 141.227 57.6082 141.227 58.6082V61.0002H140.475V58.7762C140.475 57.9842 140.107 57.6642 139.531 57.6642C138.827 57.6642 138.419 58.1682 138.419 58.9282V61.0002ZM142.341 58.9442C142.341 57.8402 143.053 56.9762 144.189 56.9762C144.821 56.9762 145.309 57.2642 145.557 57.7522L145.613 57.0882H146.285V60.8402C146.285 62.0722 145.525 62.8562 144.325 62.8562C143.261 62.8562 142.533 62.2562 142.389 61.2642H143.141C143.237 61.8402 143.669 62.1762 144.325 62.1762C145.061 62.1762 145.541 61.6962 145.541 60.9522V60.1682C145.285 60.6242 144.773 60.8962 144.157 60.8962C143.045 60.8962 142.341 60.0402 142.341 58.9442ZM143.093 58.9282C143.093 59.6642 143.549 60.2402 144.285 60.2402C145.045 60.2402 145.509 59.6962 145.509 58.9282C145.509 58.1762 145.061 57.6322 144.293 57.6322C143.541 57.6322 143.093 58.2082 143.093 58.9282ZM149.378 61.0962C148.226 61.0962 147.434 60.2642 147.434 59.0482C147.434 57.8242 148.21 56.9762 149.346 56.9762C150.458 56.9762 151.186 57.7442 151.186 58.9042V59.1842L148.162 59.1922C148.218 60.0162 148.65 60.4722 149.394 60.4722C149.978 60.4722 150.362 60.2322 150.49 59.7842H151.194C151.002 60.6242 150.346 61.0962 149.378 61.0962ZM149.346 57.6082C148.69 57.6082 148.274 58.0002 148.178 58.6882H150.434C150.434 58.0402 150.01 57.6082 149.346 57.6082ZM157.382 61.0882C155.734 61.0882 154.638 59.9042 154.638 58.1122C154.638 56.3282 155.766 55.1202 157.422 55.1202C158.726 55.1202 159.726 55.8962 159.942 57.0802H159.102C158.886 56.3282 158.238 55.8722 157.398 55.8722C156.23 55.8722 155.462 56.7522 155.462 58.1042C155.462 59.4562 156.23 60.3362 157.398 60.3362C158.246 60.3362 158.918 59.8802 159.134 59.1682H159.966C159.718 60.3202 158.686 61.0882 157.382 61.0882ZM160.863 59.0402C160.863 57.8322 161.727 56.9842 162.903 56.9842C164.071 56.9842 164.935 57.8322 164.935 59.0402C164.935 60.2482 164.071 61.0962 162.903 61.0962C161.727 61.0962 160.863 60.2482 160.863 59.0402ZM161.623 59.0402C161.623 59.8562 162.143 60.4242 162.903 60.4242C163.655 60.4242 164.183 59.8562 164.183 59.0402C164.183 58.2242 163.655 57.6562 162.903 57.6562C162.143 57.6562 161.623 58.2242 161.623 59.0402ZM166.839 61.0002H166.087V57.0882H166.767L166.847 57.6882C167.095 57.2402 167.591 56.9762 168.143 56.9762C169.175 56.9762 169.647 57.6082 169.647 58.6082V61.0002H168.895V58.7762C168.895 57.9842 168.527 57.6642 167.951 57.6642C167.247 57.6642 166.839 58.1682 166.839 58.9282V61.0002ZM172.113 61.0002H171.361V57.7202H170.593V57.0882H171.361V55.8642H172.113V57.0882H172.881V57.7202H172.113V61.0002ZM174.973 61.0962C174.133 61.0962 173.637 60.6242 173.637 59.9122C173.637 59.1922 174.173 58.7442 175.093 58.6722L176.325 58.5762V58.4642C176.325 57.8082 175.933 57.5762 175.405 57.5762C174.773 57.5762 174.413 57.8562 174.413 58.3282H173.757C173.757 57.5122 174.429 56.9762 175.437 56.9762C176.405 56.9762 177.061 57.4882 177.061 58.5442V61.0002H176.421L176.341 60.3682C176.141 60.8162 175.605 61.0962 174.973 61.0962ZM175.189 60.5122C175.901 60.5122 176.333 60.0482 176.333 59.3122V59.1042L175.333 59.1842C174.669 59.2482 174.397 59.5042 174.397 59.8882C174.397 60.3042 174.701 60.5122 175.189 60.5122ZM178.166 59.0482C178.166 57.8242 178.942 56.9762 180.086 56.9762C181.07 56.9762 181.758 57.5362 181.894 58.4082H181.142C181.014 57.9122 180.614 57.6482 180.11 57.6482C179.398 57.6482 178.91 58.1922 178.91 59.0402C178.91 59.8802 179.366 60.4242 180.078 60.4242C180.614 60.4242 181.014 60.1442 181.15 59.6802H181.902C181.75 60.5282 181.022 61.0962 180.078 61.0962C178.926 61.0962 178.166 60.2802 178.166 59.0482ZM184.12 61.0002H183.368V57.7202H182.6V57.0882H183.368V55.8642H184.12V57.0882H184.888V57.7202H184.12V61.0002Z" fill="white"/>
</svg>
