<svg width="374" height="374" viewBox="0 0 374 374" fill="none" xmlns="http://www.w3.org/2000/svg">
<g clip-path="url(#clip0_979_24081)">
<rect width="324" height="204" transform="translate(144.25) rotate(45)" fill="#007DFC"/>
<path d="M124.392 61.7665L145.628 50.7111L149.586 54.6691L138.531 75.9053L135.75 73.1246L145.617 54.0188L146.223 54.6242L127.173 64.5472L124.392 61.7665ZM130.727 61.105L133.25 58.5822L141.727 67.0587L139.204 69.5815L130.727 61.105ZM139.437 76.8112L151.546 64.7018L153.935 67.0901L150.986 70.0389L151.075 69.3662C151.629 69.112 152.193 68.9439 152.768 68.8616C153.359 68.7794 153.938 68.8056 154.506 68.9401C155.007 69.0373 155.493 69.2092 155.964 69.4559C156.45 69.7026 156.895 70.0053 157.298 70.3641C157.709 70.7154 158.064 71.1004 158.363 71.519L155.841 74.0417C155.587 73.5783 155.205 73.1298 154.697 72.6963C154.196 72.2702 153.647 71.9824 153.049 71.8329C152.473 71.661 151.909 71.6124 151.356 71.6871C150.81 71.7694 150.279 71.9562 149.764 72.2478C149.255 72.5318 148.769 72.9056 148.306 73.369L142.15 79.5246L139.437 76.8112ZM161.445 70.9228L163.923 68.4448L166.625 71.147L164.147 73.625L161.445 70.9228ZM147.497 84.8709L159.606 72.7616L162.308 75.4638L150.199 87.5731L147.497 84.8709ZM155.486 93.533C154.611 92.6585 154.036 91.754 153.759 90.8196C153.49 89.8778 153.475 88.9733 153.715 88.1062C153.961 87.2466 154.417 86.4842 155.082 85.8189C155.665 85.2359 156.286 84.8098 156.944 84.5407C157.609 84.2641 158.312 84.1595 159.052 84.2268C159.799 84.2866 160.603 84.5295 161.462 84.9556C162.105 85.2845 162.815 85.7105 163.593 86.2338C164.377 86.7645 165.203 87.3587 166.071 88.0165C166.953 88.6743 167.876 89.3583 168.84 90.0684L167.326 89.6535C168.171 88.8238 168.601 88.0203 168.616 87.2429C168.631 86.4655 168.186 85.6246 167.281 84.7201C166.736 84.1744 166.082 83.7745 165.319 83.5204C164.557 83.2662 163.765 83.3485 162.942 83.7671L161.249 80.5267C162.572 79.8016 163.963 79.5475 165.42 79.7642C166.885 79.9885 168.332 80.8145 169.759 82.2422C170.836 83.3186 171.606 84.4398 172.069 85.6059C172.54 86.7794 172.574 87.9642 172.17 89.1602C171.961 89.803 171.654 90.3711 171.251 90.8645C170.854 91.3503 170.395 91.8549 169.872 92.3781L162.438 99.8119L160.072 97.4461L162.696 94.8224L162.662 95.6409C161.242 95.9698 159.96 95.9736 158.816 95.6521C157.687 95.3307 156.577 94.6243 155.486 93.533ZM158.177 91.9184C158.79 92.5314 159.422 92.9462 160.072 93.163C160.722 93.3798 161.331 93.4583 161.9 93.3985C162.475 93.3461 162.946 93.2265 163.312 93.0397C163.798 92.8378 164.269 92.5239 164.725 92.0978C165.196 91.6718 165.57 91.3204 165.846 91.0439L166.429 92.1203C165.487 91.4326 164.676 90.8458 163.996 90.3599C163.316 89.874 162.722 89.4667 162.213 89.1378C161.713 88.8014 161.249 88.5248 160.823 88.3081C160.397 88.1062 160.001 87.9717 159.635 87.9044C159.268 87.8371 158.928 87.8409 158.614 87.9156C158.308 87.9978 158.024 88.1698 157.762 88.4314C157.463 88.7304 157.273 89.0705 157.19 89.4517C157.116 89.8255 157.153 90.2216 157.302 90.6402C157.459 91.0663 157.751 91.4924 158.177 91.9184ZM172.611 109.985L178.442 104.155C178.823 103.774 179.219 103.325 179.63 102.809C180.041 102.294 180.363 101.726 180.594 101.105C180.841 100.485 180.912 99.8457 180.807 99.1879C180.71 98.5376 180.34 97.891 179.697 97.2482C179.354 96.9043 178.957 96.6203 178.509 96.396C178.06 96.1718 177.56 96.0596 177.006 96.0596C176.468 96.0596 175.878 96.2166 175.235 96.5306C174.599 96.837 173.912 97.3603 173.172 98.1003L172.252 95.813C173.284 94.7814 174.416 94.0452 175.65 93.6041C176.891 93.1706 178.146 93.0958 179.417 93.3799C180.695 93.6565 181.902 94.3628 183.039 95.499C183.936 96.396 184.526 97.2855 184.81 98.1676C185.094 99.0496 185.176 99.8943 185.057 100.702C184.937 101.509 184.698 102.256 184.339 102.944C183.98 103.632 183.588 104.233 183.162 104.749C182.751 105.265 182.4 105.669 182.108 105.96L175.347 112.721L172.611 109.985ZM164.213 101.587L176.322 89.478L178.733 91.8887L174.977 95.6448L175.302 95.9699L166.949 104.323L164.213 101.587ZM185.527 122.901L191.358 117.071C191.739 116.69 192.135 116.241 192.546 115.726C192.957 115.21 193.279 114.642 193.51 114.021C193.757 113.401 193.828 112.762 193.724 112.104C193.626 111.454 193.256 110.807 192.613 110.164C192.27 109.82 191.873 109.536 191.425 109.312C190.976 109.088 190.476 108.976 189.923 108.976C189.384 108.976 188.794 109.133 188.151 109.447C187.516 109.753 186.828 110.276 186.088 111.016L185.168 108.729C186.2 107.698 187.332 106.961 188.566 106.52C189.807 106.087 191.062 106.012 192.333 106.296C193.611 106.573 194.819 107.279 195.955 108.415C196.852 109.312 197.442 110.202 197.726 111.084C198.01 111.966 198.093 112.81 197.973 113.618C197.853 114.425 197.614 115.172 197.255 115.86C196.897 116.548 196.504 117.15 196.078 117.665C195.667 118.181 195.316 118.585 195.024 118.876L188.263 125.637L185.527 122.901ZM177.129 114.503L189.239 102.394L191.649 104.805L187.893 108.561L188.218 108.886L179.865 117.239L177.129 114.503ZM193.118 131.164C192.243 130.29 191.667 129.385 191.391 128.451C191.122 127.509 191.107 126.605 191.346 125.738C191.593 124.878 192.049 124.116 192.714 123.45C193.297 122.867 193.917 122.441 194.575 122.172C195.24 121.896 195.943 121.791 196.683 121.858C197.431 121.918 198.234 122.161 199.094 122.587C199.737 122.916 200.447 123.342 201.224 123.865C202.009 124.396 202.835 124.99 203.702 125.648C204.584 126.306 205.507 126.99 206.471 127.7L204.958 127.285C205.802 126.455 206.232 125.652 206.247 124.874C206.262 124.097 205.817 123.256 204.913 122.352C204.367 121.806 203.713 121.406 202.951 121.152C202.188 120.898 201.396 120.98 200.574 121.399L198.881 118.158C200.204 117.433 201.594 117.179 203.052 117.396C204.517 117.62 205.963 118.446 207.391 119.874C208.467 120.95 209.237 122.071 209.701 123.237C210.172 124.411 210.205 125.596 209.801 126.792C209.592 127.434 209.286 128.003 208.882 128.496C208.486 128.982 208.026 129.486 207.503 130.01L200.069 137.443L197.703 135.078L200.327 132.454L200.293 133.272C198.873 133.601 197.591 133.605 196.448 133.284C195.319 132.962 194.209 132.256 193.118 131.164ZM195.808 129.55C196.421 130.163 197.053 130.578 197.703 130.794C198.354 131.011 198.963 131.09 199.531 131.03C200.107 130.978 200.577 130.858 200.944 130.671C201.43 130.469 201.901 130.155 202.356 129.729C202.827 129.303 203.201 128.952 203.478 128.675L204.061 129.752C203.119 129.064 202.308 128.477 201.628 127.991C200.947 127.506 200.353 127.098 199.845 126.769C199.344 126.433 198.881 126.156 198.455 125.94C198.029 125.738 197.632 125.603 197.266 125.536C196.9 125.469 196.56 125.472 196.246 125.547C195.939 125.629 195.655 125.801 195.394 126.063C195.095 126.362 194.904 126.702 194.822 127.083C194.747 127.457 194.784 127.853 194.934 128.272C195.091 128.698 195.382 129.124 195.808 129.55ZM205.235 142.609L221.381 126.464L231.102 136.185L228.4 138.887L221.381 131.868L217.356 135.893L223.029 141.567L220.338 144.258L214.665 138.584L207.937 145.311L205.235 142.609ZM216.076 153.45L232.558 136.968L235.26 139.67L218.778 156.152L216.076 153.45ZM226.184 164.231C224.959 163.006 224.148 161.664 223.751 160.206C223.355 158.749 223.366 157.287 223.785 155.822C224.211 154.365 225.037 153.023 226.263 151.797C227.586 150.474 228.988 149.581 230.468 149.117C231.955 148.646 233.42 148.594 234.863 148.96C236.306 149.326 237.621 150.104 238.81 151.292C240.065 152.548 240.835 153.909 241.119 155.374C241.418 156.839 241.246 158.319 240.604 159.814C239.961 161.309 238.862 162.729 237.307 164.074L234.627 161.395L235.614 160.408C236.922 159.085 237.651 157.893 237.8 156.831C237.95 155.77 237.535 154.75 236.556 153.77C235.45 152.664 234.284 152.186 233.058 152.335C231.839 152.477 230.572 153.206 229.257 154.522C228.031 155.747 227.351 156.966 227.216 158.177C227.081 159.388 227.53 160.509 228.562 161.54C229.227 162.206 229.944 162.632 230.714 162.819C231.499 163.006 232.303 162.95 233.125 162.651L234.986 166.126C233.431 166.754 231.865 166.885 230.288 166.519C228.718 166.16 227.351 165.398 226.184 164.231ZM227.653 154.421L229.694 152.38L238.025 160.711L235.984 162.751L227.653 154.421ZM240.482 177.856C239.532 177.206 238.684 176.484 237.936 175.692C237.189 174.914 236.643 174.092 236.299 173.225C235.963 172.351 235.926 171.469 236.187 170.579C236.434 169.779 236.823 169.099 237.353 168.538C237.884 167.978 238.493 167.354 239.181 166.666L249.709 156.138L252.4 158.828L242.029 169.2C241.543 169.686 241.121 170.116 240.762 170.489C240.411 170.871 240.19 171.248 240.1 171.622C239.921 172.339 240.1 173.02 240.639 173.662C241.177 174.305 241.879 174.948 242.747 175.591L240.482 177.856ZM242.029 159.423L244.148 157.304L252.591 165.747L250.472 167.866L242.029 159.423ZM246.273 184.32C245.025 183.072 244.236 181.73 243.908 180.295C243.586 178.852 243.672 177.413 244.165 175.978C244.666 174.551 245.522 173.224 246.733 171.998C247.981 170.765 249.323 169.909 250.758 169.43C252.208 168.952 253.651 168.885 255.086 169.228C256.529 169.565 257.863 170.346 259.089 171.572C260.464 172.947 261.279 174.457 261.533 176.102C261.802 177.746 261.485 179.312 260.58 180.8L257.161 178.837C257.602 177.978 257.759 177.126 257.631 176.281C257.512 175.429 257.142 174.693 256.521 174.072C255.819 173.37 255.071 172.958 254.279 172.839C253.494 172.712 252.702 172.831 251.902 173.198C251.102 173.564 250.332 174.117 249.592 174.857C248.441 176.008 247.768 177.197 247.574 178.423C247.38 179.648 247.791 180.77 248.807 181.786C249.525 182.504 250.254 182.904 250.994 182.986C251.741 183.076 252.53 182.915 253.36 182.504L255.501 185.879C253.894 186.738 252.291 187.034 250.691 186.765C249.099 186.488 247.626 185.673 246.273 184.32ZM261.504 198.878L267.335 193.048C267.716 192.667 268.112 192.218 268.523 191.702C268.934 191.187 269.256 190.619 269.487 189.998C269.734 189.378 269.805 188.739 269.7 188.081C269.603 187.43 269.233 186.784 268.59 186.141C268.246 185.797 267.85 185.513 267.402 185.289C266.953 185.065 266.452 184.953 265.899 184.953C265.361 184.953 264.771 185.11 264.128 185.423C263.492 185.73 262.805 186.253 262.065 186.993L261.145 184.706C262.177 183.674 263.309 182.938 264.543 182.497C265.783 182.064 267.039 181.989 268.31 182.273C269.588 182.549 270.795 183.256 271.932 184.392C272.829 185.289 273.419 186.178 273.703 187.06C273.987 187.943 274.069 188.787 273.95 189.594C273.83 190.402 273.591 191.149 273.232 191.837C272.873 192.525 272.481 193.126 272.055 193.642C271.644 194.158 271.292 194.562 271.001 194.853L264.24 201.614L261.504 198.878ZM253.106 190.48L269.252 174.334L271.662 176.745L263.164 185.244L263.489 185.569L255.842 193.216L253.106 190.48ZM271.213 209.26C269.988 208.035 269.177 206.693 268.78 205.235C268.384 203.778 268.395 202.316 268.814 200.851C269.24 199.394 270.066 198.052 271.292 196.826C272.615 195.503 274.017 194.61 275.497 194.146C276.984 193.675 278.449 193.623 279.892 193.989C281.334 194.355 282.65 195.133 283.839 196.321C285.094 197.577 285.864 198.938 286.148 200.403C286.447 201.868 286.275 203.348 285.633 204.843C284.99 206.338 283.891 207.758 282.336 209.103L279.656 206.424L280.643 205.437C281.951 204.114 282.68 202.922 282.829 201.86C282.979 200.799 282.564 199.779 281.585 198.799C280.479 197.693 279.313 197.215 278.087 197.364C276.868 197.506 275.601 198.235 274.286 199.551C273.06 200.776 272.38 201.995 272.245 203.206C272.11 204.417 272.559 205.538 273.59 206.569C274.256 207.235 274.973 207.661 275.743 207.848C276.528 208.035 277.332 207.978 278.154 207.679L280.015 211.155C278.46 211.783 276.894 211.914 275.317 211.548C273.747 211.189 272.38 210.427 271.213 209.26ZM272.682 199.45L274.723 197.409L283.054 205.74L281.013 207.78L272.682 199.45ZM278.413 215.787L290.523 203.678L292.911 206.066L289.962 209.015L290.052 208.342C290.605 208.088 291.169 207.92 291.745 207.838C292.335 207.756 292.915 207.782 293.483 207.916C293.983 208.014 294.469 208.185 294.94 208.432C295.426 208.679 295.871 208.982 296.274 209.34C296.686 209.692 297.041 210.077 297.34 210.495L294.817 213.018C294.563 212.555 294.182 212.106 293.673 211.672C293.172 211.246 292.623 210.959 292.025 210.809C291.449 210.637 290.885 210.589 290.332 210.663C289.786 210.746 289.256 210.932 288.74 211.224C288.231 211.508 287.746 211.882 287.282 212.345L281.127 218.501L278.413 215.787Z" fill="white"/>
<path d="M106.785 87.843L106.306 88.3219L102.864 84.879L103.342 84.4001L106.785 87.843ZM109.667 78.4036L103.028 85.0431L102.467 84.4822L109.106 77.8427L109.667 78.4036ZM112.805 84.9519L107.871 89.886L107.328 89.3433L112.262 84.4093L112.805 84.9519ZM113.594 82.8862C113.697 82.7828 113.816 82.7281 113.949 82.722C114.089 82.7159 114.217 82.7707 114.332 82.8862C114.448 83.0017 114.503 83.1294 114.496 83.2692C114.496 83.4091 114.445 83.5307 114.341 83.634C114.241 83.7344 114.12 83.786 113.977 83.7891C113.84 83.7921 113.714 83.7359 113.598 83.6204C113.483 83.5048 113.426 83.3787 113.429 83.2419C113.439 83.1051 113.493 82.9865 113.594 82.8862ZM110.297 92.312L109.754 91.7693L115.299 86.2242C115.637 85.8867 115.979 85.6603 116.325 85.5447C116.675 85.4323 117.017 85.4247 117.351 85.5219C117.689 85.6223 118.008 85.8229 118.309 86.1239C118.403 86.2181 118.494 86.3215 118.582 86.434C118.674 86.5434 118.751 86.6604 118.815 86.7851L118.313 87.2046C118.259 87.1073 118.195 87.0161 118.122 86.931C118.055 86.8459 117.97 86.7516 117.866 86.6483C117.669 86.4507 117.456 86.323 117.228 86.2652C117.003 86.2044 116.774 86.2151 116.539 86.2972C116.305 86.3792 116.073 86.5358 115.842 86.7669L110.297 92.312ZM116.407 88.5544L115.96 89.0013L113.425 86.4659L113.872 86.019L116.407 88.5544ZM114.159 96.3568C113.837 96.0346 113.6 95.6789 113.448 95.2897C113.299 94.9036 113.232 94.5024 113.247 94.0859C113.265 93.6724 113.367 93.2635 113.553 92.8592C113.744 92.4549 114.016 92.0764 114.369 91.7237L114.565 91.5276C114.945 91.1476 115.345 90.8603 115.764 90.6658C116.184 90.4712 116.602 90.3633 117.018 90.342C117.435 90.3207 117.827 90.3785 118.195 90.5153C118.569 90.6521 118.895 90.8603 119.175 91.14C119.488 91.4531 119.71 91.7876 119.841 92.1432C119.975 92.4959 120.022 92.8561 119.982 93.224C119.949 93.5918 119.836 93.9567 119.645 94.3184C119.456 94.6772 119.196 95.0222 118.865 95.3536L118.532 95.6865L114.797 91.9517L115.263 91.4866L118.455 94.6787L118.519 94.6148C118.789 94.3321 118.991 94.0175 119.125 93.6709C119.265 93.3243 119.307 92.9717 119.253 92.6129C119.198 92.2542 119.016 91.9198 118.705 91.6097C118.474 91.3787 118.213 91.2145 117.921 91.1172C117.632 91.023 117.327 90.9971 117.005 91.0397C116.688 91.0823 116.368 91.1902 116.042 91.3635C115.723 91.5367 115.413 91.7739 115.112 92.0748L114.916 92.2709C114.642 92.5445 114.427 92.8394 114.268 93.1556C114.116 93.4718 114.025 93.794 113.995 94.1223C113.968 94.4537 114.007 94.7729 114.113 95.08C114.22 95.387 114.398 95.6652 114.647 95.9145C114.939 96.2063 115.25 96.4115 115.582 96.5301C115.916 96.6456 116.29 96.676 116.704 96.6213L116.781 97.2278C116.517 97.2795 116.237 97.2916 115.942 97.2643C115.65 97.2399 115.354 97.1563 115.053 97.0135C114.752 96.8706 114.454 96.6517 114.159 96.3568ZM125.792 103.667L126.353 104.228C125.86 104.629 125.351 104.892 124.825 105.016C124.302 105.138 123.781 105.112 123.261 104.939C122.741 104.766 122.237 104.434 121.747 103.945C121.37 103.568 121.1 103.154 120.935 102.705C120.774 102.258 120.715 101.794 120.758 101.314C120.803 100.83 120.951 100.345 121.2 99.859C121.449 99.3726 121.799 98.9044 122.249 98.4545L123.079 97.6245C123.529 97.1746 123.995 96.8265 124.479 96.5802C124.965 96.331 125.451 96.185 125.938 96.1425C126.424 96.0999 126.894 96.1622 127.347 96.3294C127.8 96.4966 128.221 96.7748 128.61 97.1639C129.081 97.6352 129.402 98.1292 129.572 98.646C129.746 99.1598 129.77 99.6766 129.645 100.196C129.524 100.719 129.258 101.232 128.847 101.733L128.286 101.172C128.602 100.771 128.812 100.373 128.916 99.9775C129.019 99.5823 129.007 99.1902 128.879 98.801C128.758 98.4119 128.507 98.0273 128.127 97.6473C127.817 97.3372 127.481 97.1199 127.119 96.9952C126.757 96.8706 126.38 96.8341 125.988 96.8858C125.599 96.9344 125.205 97.0667 124.807 97.2825C124.412 97.5014 124.026 97.7993 123.649 98.1763L122.81 99.0154C122.445 99.3802 122.151 99.7587 121.929 100.151C121.708 100.543 121.566 100.934 121.505 101.323C121.448 101.715 121.477 102.093 121.592 102.458C121.708 102.823 121.919 103.159 122.226 103.466C122.618 103.858 123.007 104.123 123.393 104.26C123.785 104.396 124.179 104.413 124.574 104.31C124.97 104.206 125.375 103.992 125.792 103.667ZM127.611 104.848L127.762 104.697C128.121 104.339 128.504 104.059 128.911 103.858C129.318 103.658 129.729 103.542 130.142 103.512C130.559 103.484 130.963 103.545 131.355 103.694C131.75 103.84 132.114 104.079 132.445 104.41C132.78 104.744 133.02 105.109 133.166 105.504C133.315 105.897 133.375 106.301 133.348 106.717C133.321 107.134 133.207 107.546 133.006 107.953C132.805 108.361 132.526 108.744 132.167 109.102L132.017 109.253C131.658 109.612 131.275 109.891 130.867 110.092C130.463 110.29 130.053 110.402 129.636 110.429C129.223 110.46 128.818 110.402 128.423 110.256C128.031 110.107 127.669 109.867 127.338 109.536C127.003 109.201 126.762 108.838 126.613 108.446C126.467 108.05 126.408 107.645 126.435 107.228C126.462 106.812 126.575 106.401 126.772 105.997C126.973 105.59 127.253 105.206 127.611 104.848ZM128.305 105.24L128.154 105.39C127.884 105.661 127.663 105.954 127.493 106.271C127.326 106.584 127.218 106.904 127.169 107.233C127.123 107.558 127.151 107.877 127.251 108.19C127.351 108.503 127.537 108.795 127.808 109.066C128.075 109.333 128.364 109.516 128.674 109.613C128.987 109.713 129.306 109.741 129.632 109.695C129.96 109.647 130.279 109.537 130.589 109.367C130.905 109.197 131.199 108.976 131.469 108.706L131.62 108.555C131.887 108.288 132.105 107.997 132.272 107.684C132.442 107.374 132.55 107.053 132.596 106.722C132.644 106.394 132.62 106.071 132.523 105.755C132.425 105.439 132.243 105.147 131.975 104.88C131.708 104.612 131.416 104.43 131.1 104.332C130.787 104.238 130.465 104.214 130.133 104.26C129.805 104.308 129.484 104.416 129.171 104.583C128.861 104.754 128.572 104.972 128.305 105.24ZM134.643 114.889L137.188 112.345C137.422 112.111 137.575 111.86 137.648 111.592C137.721 111.325 137.709 111.051 137.612 110.771C137.514 110.492 137.328 110.214 137.051 109.937C136.796 109.682 136.522 109.499 136.23 109.39C135.944 109.28 135.668 109.244 135.4 109.28C135.139 109.317 134.917 109.426 134.734 109.609L134.192 109.057C134.377 108.871 134.602 108.738 134.867 108.655C135.131 108.573 135.415 108.548 135.719 108.578C136.023 108.608 136.33 108.7 136.64 108.852C136.957 109.004 137.255 109.219 137.534 109.499C137.887 109.852 138.138 110.221 138.287 110.607C138.439 110.996 138.472 111.385 138.387 111.775C138.302 112.164 138.08 112.538 137.721 112.896L135.336 115.281C135.166 115.452 135.002 115.64 134.844 115.847C134.689 116.057 134.576 116.245 134.506 116.412L134.452 116.467L133.872 115.888C133.945 115.742 134.053 115.576 134.196 115.391C134.345 115.205 134.494 115.038 134.643 114.889ZM136.759 113.029L136.349 113.457L135.277 112.386C134.997 112.106 134.721 111.881 134.447 111.711C134.18 111.541 133.921 111.428 133.672 111.373C133.426 111.316 133.195 111.313 132.979 111.364C132.766 111.419 132.574 111.531 132.404 111.702C132.228 111.878 132.111 112.083 132.053 112.317C131.998 112.554 132.009 112.799 132.085 113.051C132.167 113.304 132.322 113.544 132.55 113.772C132.854 114.076 133.178 114.287 133.521 114.406C133.868 114.527 134.208 114.573 134.543 114.543C134.877 114.512 135.178 114.415 135.446 114.251L135.368 114.803C135.177 114.915 134.947 114.999 134.68 115.053C134.418 115.108 134.134 115.122 133.827 115.094C133.523 115.064 133.213 114.979 132.897 114.839C132.587 114.699 132.289 114.486 132.003 114.201C131.681 113.878 131.46 113.536 131.342 113.175C131.226 112.816 131.206 112.465 131.282 112.121C131.364 111.778 131.539 111.472 131.807 111.205C132.05 110.961 132.319 110.796 132.614 110.708C132.912 110.616 133.225 110.601 133.553 110.662C133.888 110.723 134.228 110.856 134.575 111.063C134.927 111.27 135.277 111.547 135.624 111.893L136.759 113.029ZM137.963 119.221C138.194 119.452 138.452 119.626 138.738 119.741C139.03 119.857 139.326 119.895 139.627 119.855C139.934 119.816 140.222 119.68 140.489 119.449L141.009 119.969C140.681 120.267 140.305 120.451 139.883 120.521C139.466 120.591 139.047 120.554 138.624 120.411C138.208 120.269 137.831 120.028 137.493 119.691C137.15 119.347 136.908 118.981 136.768 118.592C136.631 118.206 136.586 117.814 136.631 117.415C136.68 117.014 136.808 116.619 137.014 116.23C137.227 115.841 137.507 115.473 137.853 115.126L138.045 114.935C138.392 114.588 138.758 114.31 139.144 114.1C139.536 113.891 139.931 113.763 140.33 113.717C140.731 113.669 141.125 113.713 141.511 113.849C141.897 113.986 142.262 114.226 142.605 114.57C142.958 114.923 143.203 115.31 143.339 115.733C143.479 116.158 143.502 116.586 143.408 117.014C143.317 117.446 143.099 117.849 142.756 118.223L142.236 117.703C142.485 117.423 142.643 117.125 142.71 116.809C142.777 116.493 142.76 116.181 142.66 115.874C142.56 115.567 142.385 115.289 142.135 115.04C141.856 114.76 141.562 114.576 141.255 114.488C140.951 114.397 140.643 114.383 140.33 114.447C140.023 114.511 139.72 114.634 139.422 114.816C139.127 114.996 138.849 115.216 138.588 115.477L138.396 115.669C138.132 115.933 137.907 116.213 137.721 116.508C137.542 116.803 137.42 117.104 137.356 117.411C137.296 117.721 137.309 118.03 137.397 118.337C137.492 118.644 137.68 118.939 137.963 119.221ZM148.127 116.134L141.123 123.138L140.58 122.596L147.585 115.591L148.127 116.134ZM143.773 120.243L143.668 119.864C143.978 119.591 144.311 119.376 144.666 119.221C145.022 119.066 145.382 118.977 145.747 118.952C146.115 118.931 146.469 118.981 146.81 119.103C147.153 119.227 147.466 119.431 147.749 119.714C147.995 119.96 148.182 120.214 148.31 120.475C148.438 120.737 148.497 121.009 148.488 121.292C148.479 121.574 148.395 121.865 148.237 122.163C148.082 122.464 147.84 122.778 147.512 123.107L144.301 126.317L143.754 125.77L146.969 122.555C147.31 122.214 147.529 121.901 147.626 121.615C147.726 121.327 147.731 121.054 147.64 120.799C147.548 120.544 147.384 120.297 147.147 120.06C146.886 119.799 146.598 119.627 146.285 119.545C145.978 119.463 145.666 119.446 145.35 119.495C145.04 119.544 144.747 119.636 144.47 119.773C144.197 119.907 143.964 120.063 143.773 120.243Z" fill="white"/>
<g style="mix-blend-mode:darken" opacity="0.75">
<path d="M63.9224 128.75L77.1029 141.93L37.3918 181.642L24.2113 168.461L38.014 154.658L14.3684 131.013L0.565642 144.815L-12.6148 131.635L27.0963 91.9239L40.2768 105.104L26.5306 118.85L50.1763 142.496L63.9224 128.75ZM81.9629 146.79L125.804 190.631L114.773 201.662L84.1125 171.002L80.6053 174.509L109.342 203.246L98.7638 213.824L70.0269 185.087L66.4631 188.651L97.1233 219.311L86.0924 230.342L42.2518 186.502L81.9629 146.79ZM116.608 234.497L145.401 263.29L132.221 276.471L90.2471 234.497L129.958 194.786L143.139 207.966L116.608 234.497ZM161.686 279.575L190.479 308.368L177.299 321.549L135.325 279.575L175.036 239.864L188.217 253.044L161.686 279.575ZM245.33 308.913C248.912 312.496 251.873 315.871 254.211 319.039C256.587 322.169 258.473 325.374 259.868 328.655C261.263 331.936 261.923 335.085 261.848 338.102C261.848 341.119 261.094 344.212 259.585 347.379C258.114 350.51 255.814 353.64 252.684 356.77C249.591 359.862 246.537 362.163 243.52 363.671C240.54 365.217 237.561 366.085 234.582 366.273C231.678 366.462 228.604 365.915 225.361 364.633C222.193 363.351 218.988 361.503 215.744 359.089C212.501 356.676 208.994 353.583 205.223 349.812C195.87 340.459 190.76 331.955 189.893 324.299C189.101 316.644 192.287 309.233 199.453 302.068C206.09 295.431 213.161 292.697 220.666 293.866C228.208 294.997 236.43 300.013 245.33 308.913ZM215.744 339.516C219.742 343.514 223.645 345.796 227.454 346.361C231.263 346.927 234.827 345.55 238.146 342.232C241.351 339.026 242.633 335.443 241.992 331.484C241.389 327.486 239.145 323.545 235.261 319.661C233.224 317.624 231.206 316.059 229.208 314.966C227.247 313.834 225.323 313.193 223.438 313.042C221.59 312.929 219.817 313.231 218.12 313.947C216.423 314.664 214.802 315.795 213.255 317.342C210.276 320.321 208.918 323.753 209.182 327.637C209.484 331.484 211.671 335.443 215.744 339.516Z" fill="#2E73F6"/>
</g>
</g>
<defs>
<clipPath id="clip0_979_24081">
<rect width="324" height="204" fill="white" transform="translate(144.25) rotate(45)"/>
</clipPath>
</defs>
</svg>
