<svg width="27" height="27" viewBox="0 0 27 27" fill="none" xmlns="http://www.w3.org/2000/svg">
<path d="M5.2003 17.9954C5.02781 17.9656 4.90625 17.8422 4.90625 17.6998C4.90625 12.7819 11.9783 11.7343 13.621 11.5573V9.30076C13.621 9.18956 13.695 9.08786 13.8141 9.03429C13.9348 8.98276 14.0777 8.99022 14.1886 9.05056L21.7469 13.2504C21.8463 13.306 21.9062 13.3982 21.9062 13.5006C21.9062 13.6003 21.8463 13.6932 21.7469 13.7488L14.1927 17.948C14.0802 18.009 13.9356 18.0158 13.8173 17.9636C13.6974 17.9107 13.6235 17.8083 13.6235 17.6964V15.269C12.435 15.2751 11.451 15.3185 10.6321 15.3998C6.70178 15.7843 5.65124 17.7323 5.60853 17.8157C5.55021 17.9276 5.41715 17.9995 5.27176 17.9995C5.24712 18.0008 5.22248 17.9995 5.2003 17.9954Z" fill="#1F1E25"/>
</svg>
