<svg width="24" height="24" viewBox="0 0 24 24" fill="none" xmlns="http://www.w3.org/2000/svg">
<path d="M12 15.55C11.8667 15.55 11.7374 15.525 11.612 15.475C11.4867 15.425 11.3827 15.3583 11.3 15.275L6.70005 10.675C6.51672 10.4917 6.42505 10.2583 6.42505 9.975C6.42505 9.69167 6.51672 9.45833 6.70005 9.275C6.88338 9.09167 7.11672 9 7.40005 9C7.68338 9 7.91672 9.09167 8.10005 9.275L12 13.175L15.9 9.275C16.0834 9.09167 16.3167 9 16.6 9C16.8834 9 17.1167 9.09167 17.3 9.275C17.4834 9.45833 17.575 9.69167 17.575 9.975C17.575 10.2583 17.4834 10.4917 17.3 10.675L12.7 15.275C12.6 15.375 12.4917 15.446 12.375 15.488C12.2584 15.53 12.1334 15.5507 12 15.55Z" fill="#8D8F93"/>
</svg>
