<svg width="129" height="111" viewBox="0 0 129 111" fill="none" xmlns="http://www.w3.org/2000/svg">
<path fill-rule="evenodd" clip-rule="evenodd" d="M12.0135 46.5613C11.7135 47.0697 11.5189 47.3749 11.3482 47.6936C8.04021 53.8015 4.75087 59.9201 1.4122 66.0108C0.962871 66.828 0.954866 67.44 1.40687 68.2629C4.74553 74.3509 8.03354 80.4707 11.3429 86.5775C11.5295 86.9239 11.7535 87.2509 12.0269 87.6921C12.3055 87.2244 12.5269 86.8827 12.7202 86.5255C16.0069 80.4588 19.2722 74.3785 22.5949 68.3321C23.0695 67.4681 23.0695 66.8176 22.5975 65.9577C19.2775 59.9083 16.0095 53.8307 12.7229 47.7629C12.5295 47.4067 12.3109 47.064 12.0135 46.5613ZM12.0122 44.5441C12.3109 45.0577 12.5429 45.4321 12.7535 45.8201C16.4055 52.5655 20.0482 59.316 23.7175 66.052C24.0909 66.7389 24.2509 67.2816 23.8282 68.0561C20.0349 74.9827 16.2909 81.9373 12.5269 88.8827C12.4002 89.1176 12.2362 89.3307 11.9989 89.6895C11.7149 89.2031 11.4802 88.8307 11.2722 88.4441C7.63887 81.74 4.02687 75.0244 0.360203 68.3416C-0.113131 67.4775 -0.12379 66.8332 0.350876 65.9681C4.01488 59.2827 7.62687 52.5681 11.2562 45.8629C11.4722 45.4655 11.7042 45.0801 12.0122 44.5441Z" fill="#D7D7D7"/>
<path fill-rule="evenodd" clip-rule="evenodd" d="M91.0268 1.02798C95.2015 7.81758 99.2361 14.3816 103.24 20.8936C106.579 21.3332 125.376 21.7186 126.571 21.3577C126.369 20.9936 126.191 20.6348 125.983 20.2962C122.399 14.4602 118.791 8.63731 115.245 2.77744C114.703 1.88157 114.1 1.56024 113.065 1.5389C106.627 1.40824 100.189 1.20398 93.7522 1.03065C92.9388 1.01078 92.1255 1.02798 91.0268 1.02798ZM128.467 22.6149C127.577 22.6149 126.903 22.6296 126.229 22.6118C118.924 22.4134 111.621 22.1842 104.315 22.0389C103.161 22.016 102.524 21.6082 101.939 20.6416C98.0321 14.1988 94.0668 7.79464 90.1242 1.37491C89.8922 0.999842 89.6882 0.608242 89.3948 0.0801086C89.8482 0.0482407 90.1455 -0.00015831 90.4428 0.00824165C98.2482 0.224375 106.056 0.456108 113.863 0.651976C114.66 0.672241 115.188 0.866508 115.633 1.59984C119.717 8.30824 123.841 14.9921 127.952 21.6842C128.092 21.9108 128.212 22.152 128.467 22.6149Z" fill="#D7D7D7"/>
<path fill-rule="evenodd" clip-rule="evenodd" d="M91.0482 58.751C91.4828 58.7912 91.6588 58.8245 91.8335 58.8188C99.0922 58.6256 106.351 58.4161 113.611 58.2453C114.382 58.2297 114.731 57.8365 115.084 57.2578C118.756 51.2604 122.447 45.276 126.124 39.2828C126.302 38.9937 126.416 38.6656 126.65 38.1614C118.74 38.3776 111.038 38.5896 103.314 38.8016C99.2388 45.4281 95.2042 51.9922 91.0482 58.751ZM89.4135 59.7401C89.6162 59.3469 89.7349 59.0682 89.8922 58.8109C93.9775 52.1604 98.0775 45.5161 102.144 38.851C102.57 38.1562 103.042 37.8213 103.876 37.8016C111.775 37.612 119.672 37.388 127.569 37.176C127.793 37.1698 128.018 37.2 128.362 37.2213C128.21 37.5641 128.12 37.8536 127.965 38.1057C123.857 44.7989 119.734 51.4817 115.647 58.1869C115.21 58.9057 114.7 59.139 113.89 59.1604C106.082 59.3546 98.2775 59.5896 90.4708 59.8084C90.1708 59.8177 89.8682 59.7708 89.4135 59.7401Z" fill="#D7D7D7"/>
<path fill-rule="evenodd" clip-rule="evenodd" d="M62.0895 58.7866C61.9309 58.4388 61.8722 58.2696 61.7816 58.121C57.9829 51.9346 54.1722 45.756 50.3922 39.5586C50.0295 38.9653 49.6029 38.7945 48.9522 38.7784C41.8749 38.6029 34.7975 38.4013 27.7229 38.2133C27.3869 38.2038 27.0495 38.2721 26.5735 38.3174C26.8735 38.8544 27.0749 39.2518 27.3069 39.6294C30.8682 45.4268 34.4522 51.209 37.9735 57.0278C38.5175 57.9253 39.1202 58.2492 40.1549 58.2705C46.6362 58.4038 53.1202 58.609 59.6029 58.7841C60.3709 58.8038 61.1402 58.7866 62.0895 58.7866ZM24.8055 37.1825C25.3602 37.1825 25.7242 37.1732 26.0869 37.1841C33.7562 37.3909 41.4255 37.6148 49.0949 37.7893C50.0722 37.8106 50.6522 38.1388 51.1656 38.9841C55.1736 45.5773 59.2309 52.1414 63.2696 58.7158C63.4349 58.9841 63.5829 59.2638 63.8082 59.6628C63.4389 59.7242 63.1522 59.8174 62.8682 59.809C54.9709 59.592 47.0735 59.3586 39.1762 59.1492C38.5349 59.132 38.0749 58.9972 37.7109 58.4013C33.5202 51.544 29.3056 44.7029 25.1002 37.8544C25.0122 37.7081 24.9602 37.5388 24.8055 37.1825Z" fill="#D7D7D7"/>
<path fill-rule="evenodd" clip-rule="evenodd" d="M62.1842 1.04848C61.7122 1.01782 61.4962 0.985556 61.2802 0.991289C54.0669 1.18449 46.8522 1.39382 39.6389 1.56422C38.8802 1.58182 38.5136 1.94182 38.1522 2.53089C34.4602 8.56836 30.7429 14.5913 27.0402 20.623C26.8855 20.8752 26.7975 21.1709 26.5895 21.6512C34.4695 21.4334 42.1696 21.2214 49.9122 21.0094C53.9749 14.4001 58.0136 7.83342 62.1842 1.04848ZM63.8762 0.0975552C63.3909 0.897556 63.0175 1.51782 62.6375 2.13342C58.7882 8.39649 54.9282 14.6522 51.0976 20.9272C50.6829 21.6069 50.2455 21.9938 49.3895 22.0137C41.4442 22.199 33.5015 22.4246 25.5589 22.635C25.3762 22.6402 25.1962 22.6162 24.8856 22.5965C25.0176 22.2736 25.0909 21.9855 25.2389 21.7443C29.3682 15.0121 33.5096 8.28555 37.6362 1.54955C37.9669 1.00942 38.3082 0.675156 39.0176 0.657957C47.0536 0.457956 55.0869 0.22142 63.1229 8.7738e-05C63.2935 -0.00351334 63.4655 0.0427551 63.8762 0.0975552Z" fill="#D7D7D7"/>
<path fill-rule="evenodd" clip-rule="evenodd" d="M91.1429 75.5086C91.3162 75.8914 91.3735 76.0606 91.4628 76.207C95.2402 82.3565 99.0349 88.4966 102.786 94.6606C103.212 95.3606 103.738 95.5232 104.471 95.542C111.504 95.7216 118.538 95.9216 125.572 96.1096C125.906 96.118 126.24 96.0565 126.674 96.019C126.502 95.683 126.415 95.4753 126.299 95.2882C122.548 89.1778 118.78 83.0753 115.055 76.9486C114.63 76.2486 114.124 76.0872 113.382 76.0701C106.44 75.8977 99.4989 75.6977 92.5562 75.5096C92.1509 75.4992 91.7429 75.5086 91.1429 75.5086ZM89.4149 74.4846C90.0269 74.4846 90.4668 74.4737 90.9068 74.4857C98.5295 74.6882 106.155 74.8992 113.78 75.094C114.542 75.1138 115.122 75.219 115.592 75.9966C119.74 82.8258 123.943 89.6216 128.127 96.43C128.216 96.5753 128.274 96.7404 128.403 97.019C128.012 97.0539 127.715 97.1096 127.418 97.1018C119.612 96.8857 111.806 96.6538 103.999 96.4565C103.21 96.4368 102.663 96.2925 102.21 95.5456C98.1242 88.8393 93.9962 82.1581 89.8869 75.4644C89.7309 75.2096 89.6242 74.9242 89.4149 74.4846Z" fill="#D7D7D7"/>
<path fill-rule="evenodd" clip-rule="evenodd" d="M26.5229 96.1084C27.0815 96.1084 27.4749 96.1177 27.8696 96.1068C34.8109 95.9177 41.7535 95.712 48.6962 95.5536C49.5762 95.5323 50.0922 95.2323 50.5522 94.4751C54.1602 88.5443 57.8109 82.6391 61.4442 76.7229C61.6495 76.388 61.8135 76.0271 62.0575 75.5615C61.5642 75.5365 61.2122 75.4948 60.8602 75.5041C53.8269 75.6937 46.7949 75.9032 39.7602 76.0641C38.9709 76.0817 38.5322 76.3604 38.1309 77.0177C34.4696 83.0245 30.7775 89.0109 27.0962 95.0057C26.9135 95.3032 26.7722 95.6271 26.5229 96.1084ZM63.7856 74.5323C63.5736 74.9604 63.4455 75.2855 63.2642 75.5776C59.2042 82.1937 55.1309 88.8016 51.0856 95.4256C50.6682 96.1109 50.2122 96.4391 49.3642 96.4604C41.4655 96.6484 33.5695 96.887 25.6709 97.1068C25.4469 97.1136 25.2229 97.088 24.8575 97.0724C25.0109 96.7256 25.0962 96.4427 25.2455 96.2C29.3522 89.5084 33.4749 82.8213 37.5722 76.1229C37.9589 75.4923 38.3562 75.1109 39.1682 75.0923C47.0682 74.9068 54.9642 74.6844 62.8629 74.476C63.1229 74.4699 63.3829 74.5068 63.7856 74.5323Z" fill="#D7D7D7"/>
<path fill-rule="evenodd" clip-rule="evenodd" d="M76.6122 50.5306C80.4308 43.4733 84.0975 36.6988 87.7362 29.9758C85.8922 25.8998 77.2295 10.2348 76.4415 9.59102C72.7708 16.379 69.1055 23.1561 65.4522 29.9107C69.1548 36.7534 72.8028 43.4946 76.6122 50.5306ZM76.6641 7.37062C80.8081 15.0306 84.8268 22.4588 88.8562 29.9066C84.8135 37.3801 80.7962 44.804 76.6882 52.3936C76.4015 51.9826 76.1788 51.7228 76.0175 51.428C72.2948 44.5629 68.5828 37.6894 64.8482 30.8296C64.5148 30.2149 64.4362 29.7321 64.7962 29.0697C68.5842 22.1321 72.3335 15.1774 76.0961 8.22795C76.2201 7.99982 76.3815 7.79462 76.6641 7.37062Z" fill="#D7D7D7"/>
<path fill-rule="evenodd" clip-rule="evenodd" d="M76.6296 81.8416C76.9416 82.3879 77.1296 82.6974 77.3002 83.0176C80.9549 89.7655 84.5896 96.5212 88.2762 103.252C88.7282 104.078 88.7536 104.709 88.2669 105.511C87.4842 106.795 86.8109 108.148 86.1002 109.478C85.8509 109.944 85.6002 110.376 84.8482 110.055C84.9442 109.788 85.0096 109.499 85.1416 109.245C85.8696 107.875 86.6043 106.506 87.3576 105.148C87.6189 104.683 87.7349 104.28 87.4469 103.751C83.9282 97.2937 80.4322 90.8244 76.9309 84.3578C76.8656 84.24 76.8082 84.1187 76.6709 83.8494C76.3576 84.3332 76.1496 84.6108 75.9869 84.9119C72.6549 91.0562 69.3456 97.2109 65.9829 103.337C65.5483 104.13 65.5789 104.725 66.0203 105.475C66.8749 106.925 67.6389 108.428 68.4722 109.971C67.9282 110.292 67.5589 110.259 67.2869 109.759C66.3923 108.115 65.4802 106.478 64.6309 104.809C64.4989 104.547 64.5763 104.099 64.7016 103.797C64.9469 103.211 65.2936 102.667 65.5976 102.104C69.0096 95.7963 72.4176 89.4879 75.8322 83.1827C76.0429 82.7922 76.2856 82.4176 76.6296 81.8416Z" fill="#D7D7D7"/>
</svg>
