<svg width="99" height="135" viewBox="0 0 99 135" fill="none" xmlns="http://www.w3.org/2000/svg">
<path fill-rule="evenodd" clip-rule="evenodd" d="M31.7063 38.347C31.373 38.3096 31.237 38.279 31.1023 38.2816C23.797 38.4763 16.493 38.683 9.18764 38.8563C8.48497 38.8736 8.13564 39.2083 7.80231 39.7536C4.08097 45.827 0.343639 51.8896 -3.38169 57.9616C-3.53236 58.2043 -3.59636 58.5016 -3.74436 58.891C-3.23236 58.891 -2.87236 58.899 -2.50969 58.8883C4.47431 58.6976 11.4583 58.491 18.4463 58.335C19.297 58.3163 19.7436 57.971 20.1596 57.291C23.7983 51.327 27.465 45.3816 31.121 39.4283C31.305 39.1256 31.4583 38.807 31.7063 38.347ZM-5.66302 59.855C-3.91369 57.003 -2.29236 54.359 -0.668364 51.7163C1.9383 47.4763 4.5503 43.2416 7.1463 38.9963C7.51697 38.3923 7.8623 37.9576 8.7143 37.9376C16.7036 37.7523 24.693 37.5123 32.681 37.291C32.8596 37.2856 33.0396 37.319 33.345 37.347C33.209 37.6776 33.1316 37.9683 32.981 38.2163C28.8743 44.9096 24.7516 51.5936 20.657 58.2949C20.2636 58.9376 19.8396 59.2816 19.041 59.3003C11.097 59.4883 3.15431 59.7136 -4.79102 59.9243C-5.00435 59.9296 -5.22036 59.8923 -5.66302 59.855Z" fill="#D7D7D7"/>
<path fill-rule="evenodd" clip-rule="evenodd" d="M96.2062 58.8112C96.0342 58.4378 95.9342 58.1458 95.7769 57.8912C92.0729 51.8592 88.3462 45.8418 84.6756 39.7925C84.2209 39.0458 83.6796 38.8672 82.8916 38.8472C75.9983 38.6792 69.1036 38.4805 62.2089 38.2952C61.7716 38.2818 61.3329 38.2925 60.7343 38.2925C60.8969 38.6432 60.9662 38.8498 61.0756 39.0285C64.8756 45.2152 68.6849 51.3952 72.4702 57.5898C72.8022 58.1338 73.1969 58.3032 73.7996 58.3178C80.9689 58.5005 88.1356 58.7045 95.3049 58.8978C95.5622 58.9045 95.8209 58.8512 96.2062 58.8112ZM59.0182 37.3685C59.4249 37.3338 59.6809 37.2872 59.9382 37.2952C67.8356 37.5125 75.7329 37.7445 83.6303 37.9445C84.3463 37.9632 84.7929 38.1672 85.1782 38.7978C89.3169 45.5765 93.4849 52.3405 97.6436 59.1098C97.7582 59.2978 97.8476 59.5005 98.0209 59.8352C97.5809 59.8698 97.2422 59.9272 96.9062 59.9192C89.1449 59.7152 81.3849 59.4938 73.6236 59.3072C72.7636 59.2872 72.2196 59.0312 71.7489 58.2592C67.7169 51.6272 63.6382 45.0232 59.5769 38.4098C59.3969 38.1152 59.2476 37.7978 59.0182 37.3685Z" fill="#D7D7D7"/>
<path fill-rule="evenodd" clip-rule="evenodd" d="M72.917 76.0909C68.8423 82.7229 64.7916 89.3122 60.6516 96.0509C61.1183 96.0815 61.3343 96.1149 61.549 96.1082C68.7623 95.9135 75.9743 95.7069 83.189 95.5362C83.9477 95.5189 84.317 95.1615 84.6783 94.5722C88.3703 88.5335 92.0863 82.5109 95.789 76.4789C95.9437 76.2269 96.0316 75.9322 96.2423 75.4522C88.3596 75.6682 80.6623 75.8789 72.917 76.0909ZM98.0463 74.5135C97.7636 75.0229 97.5836 75.3789 97.377 75.7175C93.3623 82.2535 89.3343 88.7802 85.3463 95.3322C84.8636 96.1242 84.3317 96.4362 83.393 96.4589C75.6303 96.6389 67.8716 96.8789 60.1116 97.0962C59.8036 97.1055 59.4956 97.0682 59.0436 97.0442C59.2223 96.6669 59.3263 96.3829 59.4796 96.1309C63.5663 89.4775 67.665 82.8335 71.7356 76.1709C72.1516 75.4895 72.597 75.1109 73.449 75.0909C81.393 74.9042 89.3356 74.6775 97.2796 74.4655C97.4583 74.4615 97.6396 74.4869 98.0463 74.5135Z" fill="#D7D7D7"/>
<path fill-rule="evenodd" clip-rule="evenodd" d="M31.6383 96.0773C31.5476 95.796 31.5289 95.6573 31.4636 95.5493C27.6209 89.284 23.765 83.0253 19.937 76.7493C19.5943 76.1867 19.1569 76.088 18.5783 76.0734C11.4569 75.888 4.33562 75.688 -2.78571 75.4987C-3.08038 75.4907 -3.37505 75.552 -3.81771 75.596C-3.52571 76.1267 -3.32704 76.5227 -3.09771 76.9C0.462291 82.6973 4.04762 88.48 7.56896 94.3C8.10896 95.1893 8.69029 95.54 9.73829 95.5613C16.269 95.692 22.7943 95.9 29.3236 96.076C30.0516 96.096 30.7796 96.0773 31.6383 96.0773ZM33.417 97.0293C32.9663 97.0613 32.665 97.1067 32.3636 97.0987C24.5583 96.88 16.7516 96.6507 8.94628 96.4413C8.22762 96.4213 7.68896 96.316 7.25296 95.6C3.09962 88.7733 -1.09771 81.9747 -5.28038 75.168C-5.37238 75.02 -5.42971 74.8493 -5.56171 74.5587C-5.14304 74.5227 -4.80705 74.4627 -4.47105 74.4707C3.29028 74.676 11.0503 74.8987 18.8116 75.0854C19.6689 75.1067 20.217 75.3587 20.6876 76.1333C24.745 82.8027 28.849 89.4453 32.9356 96.096C33.093 96.3533 33.2143 96.6333 33.417 97.0293Z" fill="#D7D7D7"/>
<path fill-rule="evenodd" clip-rule="evenodd" d="M-3.86972 133.399C-3.30839 133.399 -2.91638 133.408 -2.52438 133.398C4.41696 133.207 11.3596 133.003 18.3023 132.843C19.1823 132.823 19.6983 132.522 20.1583 131.766C23.765 125.834 27.4169 119.928 31.0503 114.014C31.2556 113.678 31.4196 113.316 31.6649 112.852C31.1689 112.826 30.8169 112.784 30.4663 112.795C23.4343 112.983 16.4023 113.191 9.36761 113.355C8.57828 113.372 8.13828 113.648 7.73695 114.307C4.07562 120.314 0.383617 126.3 -3.29638 132.295C-3.47905 132.592 -3.62172 132.915 -3.86972 133.399ZM-5.66705 134.324C-3.60572 130.971 -1.67106 127.822 0.26361 124.672C2.58361 120.9 4.91428 117.134 7.21561 113.35C7.57695 112.754 7.96094 112.406 8.71161 112.388C16.7463 112.196 24.7823 111.976 32.8169 111.768C32.9489 111.764 33.0809 111.804 33.3489 111.844C33.1903 112.198 33.0809 112.526 32.9049 112.814C28.8209 119.468 24.7249 126.115 20.6516 132.776C20.2609 133.414 19.8369 133.73 19.0343 133.747C11.1356 133.938 3.23829 134.175 -4.65771 134.394C-4.92038 134.402 -5.18172 134.359 -5.66705 134.324Z" fill="#D7D7D7"/>
<path fill-rule="evenodd" clip-rule="evenodd" d="M31.6529 21.5191C31.4169 21.0684 31.2529 20.7057 31.0449 20.3697C27.4356 14.4937 23.8023 8.63107 20.2263 2.73507C19.7129 1.89107 19.1329 1.56308 18.1569 1.54174C11.3076 1.38841 4.45694 1.1831 -2.39239 0.9991C-2.82706 0.987099 -3.2644 0.997765 -3.8164 0.997765C-3.70174 1.31243 -3.66706 1.48974 -3.57906 1.63507C0.242269 7.86174 4.07427 14.0858 7.8836 20.3204C8.2196 20.8698 8.64093 21.0084 9.2356 21.0231C16.4063 21.2084 23.5756 21.4137 30.7449 21.6071C31.0036 21.6137 31.2623 21.5591 31.6529 21.5191ZM-5.58307 0.0710716C-5.23374 0.0377388 -5.0164 -0.0049324 -4.8004 0.000402451C3.18893 0.220402 11.1796 0.448423 19.1703 0.656424C19.7729 0.672424 20.1703 0.841751 20.5009 1.38308C24.6929 8.24042 28.9063 15.0831 33.1103 21.9324C33.2009 22.0778 33.2516 22.2471 33.3823 22.5444C32.9009 22.5751 32.5156 22.6284 32.1316 22.6178C24.4156 22.4164 16.7009 22.2031 8.9836 22.0057C8.26893 21.9871 7.71293 21.8778 7.27959 21.1644C3.07559 14.2604 -1.16707 7.38176 -5.39773 0.495096C-5.4444 0.419096 -5.47107 0.331072 -5.58307 0.0710716Z" fill="#D7D7D7"/>
<path fill-rule="evenodd" clip-rule="evenodd" d="M46.2196 87.8179C50.037 80.7605 53.7169 73.9632 57.3489 67.2485C54.9849 62.3032 46.9449 47.7152 46.0756 46.8339C42.3956 53.6352 38.7303 60.4112 35.057 67.1992C38.7516 74.0245 42.4143 80.7925 46.2196 87.8179ZM33.9716 67.1992C38.0063 59.7445 42.0236 52.3165 46.1183 44.7499C46.3783 45.0739 46.5996 45.2765 46.7343 45.5232C50.501 52.4712 54.2556 59.4245 58.0236 66.3699C58.301 66.8805 58.4249 67.3005 58.1076 67.8832C54.2369 74.9805 50.3969 82.0952 46.5423 89.2032C46.4823 89.3125 46.3716 89.3965 46.1316 89.6592C42.0556 82.1298 38.025 74.6859 33.9716 67.1992Z" fill="#D7D7D7"/>
</svg>
