<svg width="133" height="40" viewBox="0 0 133 40" fill="none" xmlns="http://www.w3.org/2000/svg">
<path d="M8 10.1302C8 8.95371 8.9556 8 10.1344 8H41.8656C43.0444 8 44 8.95371 44 10.1302V14.6036H8V10.1302Z" fill="#171717"/>
<path d="M8 16.6627H44V23.4083H8V16.6627Z" fill="#171717"/>
<path d="M8 23.4083H13.834V25.4675H8V23.4083Z" fill="#171717"/>
<path d="M8 25.4675H44V29.8698C44 31.0463 43.0444 32 41.8656 32H10.1344C8.9556 32 8 31.0463 8 29.8698V25.4675Z" fill="#171717"/>
<path d="M53.248 26V14.8H60.64V16.88H55.52V19.152H60V21.232H55.52V23.92H60.64V26H53.248ZM66.8943 17.44L65.5023 21.616H68.2863L66.8943 17.44ZM65.7423 14.8H68.1103L72.1583 26H69.7583L68.9583 23.6H64.8303L64.0303 26H61.6943L65.7423 14.8ZM77.7811 26.256C75.4131 26.256 73.7811 25.232 72.8691 23.184L74.8211 22.224C75.4291 23.504 76.4051 24.208 77.8291 24.208C79.0611 24.208 79.9731 23.68 79.9731 22.848C79.9731 20.608 73.4131 21.952 73.4131 17.904C73.4131 15.904 75.0291 14.544 77.5731 14.544C79.6051 14.544 81.2531 15.424 82.1651 17.184L80.2611 18.176C79.7811 17.152 78.8211 16.56 77.5891 16.56C76.3731 16.56 75.6851 17.136 75.6851 17.776C75.6851 19.776 82.2771 18.48 82.2771 22.688C82.2771 24.864 80.5331 26.256 77.7811 26.256ZM88.1874 26.256C85.8194 26.256 84.1874 25.232 83.2754 23.184L85.2274 22.224C85.8354 23.504 86.8114 24.208 88.2354 24.208C89.4674 24.208 90.3794 23.68 90.3794 22.848C90.3794 20.608 83.8194 21.952 83.8194 17.904C83.8194 15.904 85.4354 14.544 87.9794 14.544C90.0114 14.544 91.6594 15.424 92.5714 17.184L90.6674 18.176C90.1874 17.152 89.2274 16.56 87.9954 16.56C86.7794 16.56 86.0914 17.136 86.0914 17.776C86.0914 19.776 92.6834 18.48 92.6834 22.688C92.6834 24.864 90.9394 26.256 88.1874 26.256ZM98.7536 17.44L97.3616 21.616H100.146L98.7536 17.44ZM97.6016 14.8H99.9696L104.018 26H101.618L100.818 23.6H96.6896L95.8896 26H93.5536L97.6016 14.8ZM111.049 26H108.617L104.601 14.8H107.097L109.865 23.168L112.633 14.8H115.065L111.049 26ZM116.607 26V14.8H123.999V16.88H118.879V19.152H123.359V21.232H118.879V23.92H123.999V26H116.607Z" fill="#171717"/>
</svg>
