<svg width="27" height="27" viewBox="0 0 27 27" fill="none" xmlns="http://www.w3.org/2000/svg">
<path d="M6.9375 6.9375V8.00156H8.58458V18.9989H6.9375V20.0624H14.0949C16.1472 20.0624 17.6536 19.7551 18.6138 19.1397C19.5796 18.5243 20.0624 17.5659 20.0624 16.2649C20.0624 15.3038 19.7176 14.533 19.0277 13.9528C18.3378 13.3726 17.346 13.0209 16.0525 12.8978C17.1218 12.7806 17.9266 12.4935 18.4671 12.0364C19.0133 11.5793 19.2863 10.9609 19.2864 10.1814C19.2864 9.09715 18.8925 8.28577 18.1049 7.74661C17.3173 7.20744 16.1387 6.93751 14.5691 6.9375H6.9375ZM11.9049 8.00156H13.0346C14.0522 8.00156 14.7908 8.17422 15.2508 8.51998C15.7164 8.86575 15.9495 9.41952 15.9495 10.1814C15.9495 10.9374 15.7109 11.5003 15.2337 11.8695C14.7565 12.2328 14.0235 12.4146 13.0346 12.4146H11.9049V8.00156ZM11.9049 13.4696H13.1381C14.2247 13.4696 15.0351 13.701 15.5698 14.164C16.1044 14.627 16.372 15.3272 16.372 16.2649C16.372 17.1968 16.1072 17.8857 15.5783 18.3311C15.0494 18.7765 14.2362 18.9989 13.1381 18.9989H11.9049V13.4696Z" fill="#141414"/>
</svg>
