<svg width="21" height="21" viewBox="0 0 21 21" fill="none" xmlns="http://www.w3.org/2000/svg">
<path d="M12.7137 8.28643L8.28618 12.7139C7.71743 12.1452 7.36743 11.3664 7.36743 10.5002C7.36743 8.76768 8.76743 7.36768 10.4999 7.36768C11.3662 7.36768 12.1449 7.71768 12.7137 8.28643Z" stroke="#828282" stroke-width="1.5" stroke-linecap="round" stroke-linejoin="round"/>
<path d="M15.5926 5.04867C14.0614 3.89367 12.3114 3.26367 10.5001 3.26367C7.41136 3.26367 4.53261 5.08367 2.52886 8.23367C1.74136 9.46742 1.74136 11.5412 2.52886 12.7749C3.22011 13.8599 4.02511 14.7962 4.90011 15.5487" stroke="#828282" stroke-width="1.5" stroke-linecap="round" stroke-linejoin="round"/>
<path d="M7.36743 17.089C8.36493 17.509 9.42368 17.7365 10.4999 17.7365C13.5887 17.7365 16.4674 15.9165 18.4712 12.7665C19.2587 11.5327 19.2587 9.45896 18.4712 8.22521C18.1824 7.77021 17.8674 7.34146 17.5437 6.93896" stroke="#828282" stroke-width="1.5" stroke-linecap="round" stroke-linejoin="round"/>
<path d="M13.5713 11.1123C13.3438 12.3461 12.3375 13.3523 11.1038 13.5798" stroke="#828282" stroke-width="1.5" stroke-linecap="round" stroke-linejoin="round"/>
<path d="M8.28625 12.7139L1.75 19.2501" stroke="#828282" stroke-width="1.5" stroke-linecap="round" stroke-linejoin="round"/>
<path d="M19.2501 1.75L12.7139 8.28625" stroke="#828282" stroke-width="1.5" stroke-linecap="round" stroke-linejoin="round"/>
</svg>
