<svg width="27" height="27" viewBox="0 0 27 27" fill="none" xmlns="http://www.w3.org/2000/svg">
<path d="M7.2539 7.81691C7.04313 7.80457 6.91496 7.79222 6.86938 7.77988L6.84375 6.96527C6.91781 6.9591 7.03174 6.95601 7.18554 6.95601C7.52734 6.95601 7.84635 6.96836 8.14257 6.99304C8.89452 7.03624 9.36733 7.05784 9.56102 7.05784C10.0509 7.05784 10.5294 7.04858 10.9966 7.03007C11.6574 7.00538 12.0732 6.98996 12.2441 6.98378C12.5631 6.98378 12.8081 6.97761 12.979 6.96527L12.9704 7.09487L12.9875 7.68731V7.77062C12.6457 7.82617 12.2925 7.85394 11.9279 7.85394C11.5862 7.85394 11.3611 7.93108 11.2529 8.08536C11.1788 8.17176 11.1418 8.57906 11.1418 9.30728C11.1418 9.3875 11.1432 9.48779 11.1461 9.60813C11.1489 9.72847 11.1504 9.80715 11.1504 9.84418L11.1589 11.964L11.2785 14.556C11.3127 15.3212 11.458 15.9445 11.7143 16.4259C11.9137 16.79 12.1871 17.0738 12.5346 17.2775C13.0359 17.5676 13.5401 17.7126 14.0471 17.7126C14.6395 17.7126 15.1835 17.6262 15.6791 17.4534C15.9982 17.3423 16.2801 17.1849 16.5251 16.9813C16.7985 16.7591 16.9837 16.5616 17.0805 16.3888C17.2856 16.0432 17.4365 15.6915 17.5334 15.3335C17.653 14.883 17.7128 14.1764 17.7128 13.2137C17.7128 12.7262 17.7029 12.3312 17.6829 12.0288C17.663 11.7264 17.6316 11.3484 17.5889 10.8948C17.5462 10.4413 17.5077 9.94909 17.4736 9.41836L17.4394 8.8722C17.4109 8.45872 17.3425 8.18719 17.2343 8.05759C17.0406 7.84159 16.8213 7.73668 16.5764 7.74285L15.7219 7.76137L15.6022 7.7336L15.6193 6.9375H16.3371L18.0888 7.03007C18.5217 7.04858 19.08 7.01773 19.7636 6.9375L19.9174 6.95601C19.9516 7.19052 19.9687 7.34789 19.9687 7.42812C19.9687 7.47132 19.9573 7.56697 19.9345 7.71508C19.6781 7.78914 19.4389 7.82925 19.2167 7.83542C18.8009 7.90331 18.5759 7.95576 18.5417 7.99279C18.4562 8.08536 18.4135 8.21187 18.4135 8.37233C18.4135 8.41552 18.4178 8.49884 18.4263 8.62226C18.4349 8.74569 18.4391 8.84134 18.4391 8.90923C18.4847 9.02648 18.5474 10.2484 18.6271 12.575C18.6613 13.7784 18.6186 14.7164 18.499 15.3891C18.4135 15.8581 18.2967 16.2346 18.1486 16.5184C17.9321 16.9196 17.6131 17.2991 17.1916 17.657C16.7643 18.0088 16.246 18.2834 15.6364 18.4809C15.0155 18.6846 14.2892 18.7864 13.4575 18.7864C12.5061 18.7864 11.6972 18.6444 11.0307 18.3606C10.3528 18.0705 9.843 17.6941 9.5012 17.2312C9.15371 16.7622 8.9173 16.1605 8.79198 15.4261C8.70083 14.9324 8.65526 14.2011 8.65526 13.2322V10.1497C8.65526 8.98945 8.60684 8.33221 8.51 8.17793C8.36758 7.95576 7.94889 7.83542 7.2539 7.81691ZM19.9687 20.8599V20.2675C19.9687 20.1811 19.943 20.1101 19.8918 20.0546C19.8405 19.999 19.775 19.9713 19.6952 19.9713H7.11719C7.03743 19.9713 6.97192 19.999 6.92065 20.0546C6.86938 20.1101 6.84375 20.1811 6.84375 20.2675V20.8599C6.84375 20.9463 6.86938 21.0173 6.92065 21.0728C6.97192 21.1284 7.03743 21.1562 7.11719 21.1562H19.6952C19.775 21.1562 19.8405 21.1284 19.8918 21.0728C19.943 21.0173 19.9687 20.9463 19.9687 20.8599Z" fill="#141414"/>
</svg>
