<svg width="71" height="45" viewBox="0 0 71 45" fill="none" xmlns="http://www.w3.org/2000/svg">
<g clip-path="url(#clip0_890_24524)">
<path d="M70.0292 35.1298C66.1604 31.3062 61.2918 28.8675 55.9277 28.0749C55.2409 27.9791 54.6062 28.4582 54.5019 29.1375C54.4063 29.8256 54.8758 30.4614 55.5626 30.5659C59.953 31.2017 63.9956 33.0917 67.308 36.0269C63.2393 39.624 58.0056 41.662 52.5023 41.7579C47.2773 41.8537 42.2349 40.1988 38.14 37.072C50.6158 35.4695 60.3529 24.774 60.4225 11.9098C60.4311 11.5788 60.292 11.2566 60.0573 11.0214C59.8052 10.7688 59.4661 10.6295 59.1445 10.6469C53.8325 10.6817 48.7553 12.3453 44.4692 15.4633C43.9041 15.8727 43.7824 16.6566 44.191 17.2227C44.3909 17.4927 44.6778 17.6669 45.0082 17.7191C45.3386 17.7714 45.6689 17.693 45.9384 17.5014C49.4421 14.9495 53.563 13.4688 57.8751 13.2075C57.5187 18.8949 55.067 24.2079 50.92 28.2404C47.3295 31.7243 42.8 33.9104 37.9401 34.5637C45.6429 24.5998 45.0256 10.1853 36.0448 1.09237C35.8188 0.857209 35.4971 0.726562 35.158 0.726562C34.819 0.726562 34.4973 0.857209 34.2626 1.09237C30.446 4.95947 28.0117 9.84559 27.2205 15.2195C27.1249 15.9075 27.6031 16.5433 28.2899 16.6479C28.968 16.7437 29.6027 16.2646 29.707 15.5853C30.3503 11.1869 32.2282 7.12818 35.158 3.80979C38.8964 8.06011 40.8873 13.5298 40.783 19.2869C40.6873 24.2775 39.0268 29.0156 36.0535 32.9088C34.4625 20.5062 23.9169 10.7862 11.2412 10.6556C10.9021 10.6556 10.5804 10.7775 10.3457 11.0214C10.111 11.2566 9.97188 11.5788 9.97188 11.9098V14.244C9.97188 14.2846 9.97478 14.3253 9.98057 14.3659C10.4153 18.6424 11.9454 22.762 14.4058 26.2808C14.797 26.8469 15.5794 26.9862 16.1532 26.5943C16.4227 26.394 16.6053 26.1066 16.6662 25.7843C16.727 25.4533 16.6488 25.1137 16.4575 24.8437C14.258 21.6908 12.8756 17.9979 12.4757 14.1743V13.2162C18.092 13.5908 23.3431 16.0556 27.3162 20.1927C30.7502 23.7724 32.8976 28.2753 33.5497 33.0917C23.6734 25.4795 9.36331 26.2285 0.382531 35.0514C0.139101 35.2866 0.00869388 35.6001 0 35.9398C0 36.2708 0.139101 36.593 0.373835 36.8282L2.00829 38.4743C2.04306 38.5033 2.07784 38.5324 2.11261 38.5614C6.58996 42.2282 12.2584 44.2401 18.0659 44.2401H18.1093C22.6476 44.2401 27.0901 43.0208 30.9763 40.7127C31.2632 40.5385 31.4631 40.2685 31.5501 39.9462C31.6283 39.6153 31.5849 39.2756 31.411 38.9882C31.2458 38.7008 30.9676 38.5004 30.6459 38.4133C30.3242 38.3349 29.9852 38.3785 29.6983 38.5527C26.2033 40.6256 22.2042 41.723 18.118 41.7317H18.0485C12.8496 41.7317 7.77233 39.9288 3.74706 36.654L3.06894 35.9746C7.30286 32.2556 12.7452 30.2698 18.4658 30.3569C24.3863 30.4527 29.9504 32.7869 34.1235 36.9153C34.1293 36.9211 34.1322 36.924 34.1322 36.924C38.9225 41.662 45.2864 44.2749 52.0676 44.2749C52.0734 44.2749 52.0763 44.2749 52.0763 44.2749C58.8662 44.2749 65.2389 41.662 70.0292 36.9153C70.2639 36.6801 70.403 36.3579 70.403 36.0269C70.403 35.6872 70.2639 35.3649 70.0292 35.1298Z" fill="url(#paint0_linear_890_24524)"/>
</g>
<defs>
<linearGradient id="paint0_linear_890_24524" x1="35.2015" y1="0.726562" x2="35.2015" y2="63.1459" gradientUnits="userSpaceOnUse">
<stop stop-color="#FF9DCC"/>
<stop offset="1" stop-color="#5028FF"/>
</linearGradient>
<clipPath id="clip0_890_24524">
<rect width="71" height="45" fill="white"/>
</clipPath>
</defs>
</svg>
