<svg width="126" height="32" viewBox="0 0 126 32" fill="none" xmlns="http://www.w3.org/2000/svg">
<g clip-path="url(#clip0_435_5471)">
<path d="M56.0331 15.1139H61.4598C61.7312 15.1137 62.0001 15.1671 62.2508 15.2709C62.5016 15.3748 62.7294 15.5272 62.9212 15.7192C63.113 15.9113 63.265 16.1394 63.3684 16.3904C63.4719 16.6413 63.5248 16.9102 63.5242 17.1816C63.5369 19.0462 63.0024 20.8735 61.9869 22.4372C60.9713 24.001 59.5194 25.2325 57.8109 25.9792C56.1024 26.7259 54.2123 26.955 52.3749 26.6382C50.5374 26.3214 48.8333 25.4725 47.4735 24.1967C47.406 24.1326 47.3419 24.0668 47.276 23.9992C45.4794 22.1823 44.4717 19.7301 44.4717 17.1749C44.4717 14.6196 45.4794 12.1675 47.276 10.3505C48.1376 9.43706 49.1798 8.71278 50.3363 8.22372C51.4928 7.73466 52.7385 7.49152 53.994 7.50974C56.3977 7.50974 58.4418 8.25525 60.1263 9.74627C60.464 10.0447 60.6693 10.465 60.6972 10.9148C60.725 11.3646 60.5731 11.807 60.2749 12.1448C60.2026 12.2258 60.1229 12.2998 60.0369 12.3659L59.4343 12.8251C59.135 13.0586 58.7654 13.1837 58.3859 13.18C58.0063 13.1763 57.6393 13.0441 57.3446 12.8048C56.407 12.0206 55.2161 11.6042 53.994 11.6334C53.2812 11.6243 52.5742 11.7638 51.9183 12.0431C51.2624 12.3224 50.6718 12.7353 50.1843 13.2555C49.1697 14.3097 48.6029 15.716 48.6029 17.1791C48.6029 18.6423 49.1697 20.0485 50.1843 21.1027C51.0666 22.0134 52.2457 22.5781 53.5083 22.6949C54.7709 22.8116 56.0335 22.4725 57.0678 21.7391C57.9563 21.1181 58.6373 20.2441 59.0224 19.2308H56.0432C55.4964 19.2304 54.9722 19.0128 54.5858 18.6261C54.1993 18.2393 53.9822 17.7149 53.9822 17.1681C53.984 16.6245 54.2005 16.1035 54.5847 15.7187C54.9688 15.334 55.4894 15.1166 56.0331 15.1139Z" fill="#1B2A7A"/>
<path d="M80.6768 21.6309C80.8889 21.7957 81.0665 22.0006 81.1994 22.234C81.3323 22.4674 81.4178 22.7247 81.4512 22.9912C81.4846 23.2577 81.4652 23.5281 81.394 23.7871C81.3228 24.0461 81.2013 24.2885 81.0364 24.5004C80.9278 24.6402 80.8012 24.7651 80.66 24.8718C80.2592 25.1822 79.8342 25.46 79.3889 25.7023C78.0166 26.4522 76.4763 26.8413 74.9125 26.8332C73.6552 26.8529 72.4076 26.6101 71.2494 26.1204C70.0912 25.6306 69.0479 24.9047 68.1861 23.989C66.397 22.1677 65.3945 19.7168 65.3945 17.1638C65.3945 14.6108 66.397 12.1599 68.1861 10.3386C69.0472 9.425 70.089 8.70062 71.2453 8.21155C72.4016 7.72247 73.6471 7.4794 74.9024 7.4978C76.4679 7.49149 78.009 7.88605 79.3788 8.64391C79.9075 8.93114 80.4092 9.26558 80.8777 9.64317C81.0957 9.82259 81.2705 10.0488 81.3891 10.305C81.5077 10.5612 81.5671 10.8408 81.5629 11.1231C81.5587 11.4054 81.4909 11.6831 81.3647 11.9356C81.2385 12.1882 81.0571 12.4091 80.8338 12.5819L80.5722 12.7929C80.2437 13.054 79.8364 13.1962 79.4168 13.1962C78.9972 13.1962 78.5899 13.054 78.2614 12.7929C77.318 12.0193 76.127 11.6123 74.9075 11.6468C74.1946 11.6377 73.4877 11.7772 72.8317 12.0565C72.1758 12.3358 71.5853 12.7487 71.0978 13.2689C70.0831 14.3231 69.5163 15.7293 69.5163 17.1925C69.5163 18.6557 70.0831 20.0619 71.0978 21.1161C71.5857 21.6355 72.1764 22.0477 72.8323 22.3264C73.4882 22.6051 74.1949 22.7442 74.9075 22.7348C76.0842 22.7655 77.2351 22.3867 78.1635 21.663C78.5212 21.3783 78.9643 21.2224 79.4215 21.2202C79.8786 21.2181 80.3232 21.3699 80.6836 21.6512L80.6768 21.6309Z" fill="#1B2A7A"/>
<path d="M96.9187 26.634H94.0121C93.982 26.634 93.9523 26.628 93.9245 26.6165C93.8967 26.6049 93.8715 26.588 93.8504 26.5666C93.8292 26.5453 93.8124 26.52 93.8011 26.4921C93.7897 26.4643 93.784 26.4345 93.7842 26.4044C93.7838 26.3743 93.7774 26.3445 93.7655 26.3168C93.7535 26.2891 93.7362 26.2641 93.7146 26.2431C93.693 26.2221 93.6674 26.2055 93.6394 26.1944C93.6114 26.1833 93.5814 26.1778 93.5513 26.1782C93.5148 26.1794 93.4791 26.1886 93.4466 26.2052C92.7186 26.5867 91.7548 26.7769 90.5552 26.7757C89.5855 26.7924 88.6229 26.6084 87.7277 26.2355C86.8325 25.8625 86.024 25.3086 85.3529 24.6084C83.9749 23.2008 83.2031 21.3094 83.2031 19.3395C83.2031 17.3697 83.9749 15.4782 85.3529 14.0706C86.0236 13.3691 86.8321 12.8139 87.7277 12.4401C88.6233 12.0662 89.5865 11.8817 90.5569 11.8982C91.7317 11.8982 92.6797 12.1104 93.4011 12.5346C93.4301 12.5515 93.4621 12.5626 93.4954 12.5671C93.5287 12.5716 93.5626 12.5695 93.5951 12.5608C93.6275 12.5522 93.658 12.5372 93.6846 12.5168C93.7113 12.4964 93.7337 12.4709 93.7505 12.4418C93.774 12.4007 93.7862 12.3541 93.7859 12.3067C93.7863 12.2382 93.8136 12.1726 93.8619 12.124C93.9102 12.0754 93.9756 12.0477 94.0442 12.0468H96.8073C96.95 12.0459 97.0915 12.0733 97.2236 12.1274C97.3557 12.1815 97.4757 12.2612 97.5768 12.362C97.6778 12.4627 97.7579 12.5825 97.8125 12.7144C97.867 12.8463 97.8948 12.9877 97.8944 13.1304V25.6853C97.8944 25.8117 97.8695 25.9368 97.8211 26.0535C97.7728 26.1703 97.7019 26.2763 97.6126 26.3657C97.5232 26.455 97.4172 26.5259 97.3004 26.5742C97.1837 26.6226 97.0586 26.6475 96.9322 26.6475L96.9187 26.634ZM90.5569 22.6724C90.9818 22.6792 91.4035 22.5973 91.795 22.432C92.1865 22.2666 92.5392 22.0213 92.8305 21.7119C93.1382 21.401 93.3808 21.0319 93.5443 20.6262C93.7078 20.2204 93.7887 19.7862 93.7825 19.3488V19.337C93.7884 18.8997 93.7072 18.4655 93.5438 18.0599C93.3803 17.6542 93.1379 17.285 92.8305 16.9739C92.5399 16.6627 92.1876 16.4154 91.7962 16.2477C91.4047 16.08 90.9827 15.9956 90.5569 15.9999C90.1304 15.9951 89.7075 16.0782 89.3146 16.244C88.9217 16.4098 88.5671 16.6548 88.2731 16.9637C87.6629 17.6036 87.3225 18.4537 87.3225 19.3378C87.3225 20.2219 87.6629 21.0721 88.2731 21.7119C88.567 22.0211 88.9215 22.2663 89.3145 22.4325C89.7074 22.5986 90.1303 22.682 90.5569 22.6774V22.6724Z" fill="#1B2A7A"/>
<path d="M108.25 18.5472C107.639 18.087 106.719 17.6841 105.49 17.3386C104.683 17.1158 104.246 16.9707 104.177 16.8998C104.143 16.8661 104.117 16.826 104.099 16.7819C104.082 16.7379 104.073 16.6907 104.074 16.6432C104.066 16.6049 104.063 16.5658 104.064 16.5267C104.061 16.4088 104.083 16.2917 104.127 16.1823C104.171 16.073 104.237 15.9737 104.32 15.8904C104.402 15.8076 104.498 15.7418 104.605 15.6965C104.712 15.6512 104.827 15.6274 104.943 15.6264C105.059 15.6255 105.174 15.6474 105.281 15.691C105.389 15.7345 105.487 15.7988 105.569 15.8803L105.58 15.8904C105.663 15.9738 105.729 16.0731 105.773 16.1824C105.817 16.2917 105.839 16.4088 105.838 16.5267V16.5453C105.868 16.5733 105.893 16.6064 105.912 16.6432H108.913C109.034 16.6443 109.153 16.6217 109.264 16.5766C109.376 16.5316 109.477 16.465 109.563 16.3806C109.649 16.2963 109.717 16.1958 109.764 16.0851C109.811 15.9743 109.836 15.8554 109.837 15.7351C109.837 15.6513 109.826 15.5679 109.804 15.487C109.579 14.6414 109.114 13.8792 108.464 13.2926C107.51 12.4004 106.253 11.9041 104.947 11.9041C103.64 11.9041 102.383 12.4004 101.429 13.2926C100.959 13.7157 100.585 14.2339 100.331 14.8127C100.077 15.3916 99.9488 16.0178 99.9553 16.65C99.9553 18.1353 100.501 19.2848 101.591 20.0984C102.202 20.5553 103.132 20.9587 104.381 21.3087C105.214 21.5337 105.664 21.6918 105.731 21.783C105.763 21.8178 105.787 21.8586 105.803 21.903C105.818 21.9473 105.824 21.9944 105.821 22.0412C105.83 22.0789 105.834 22.1174 105.834 22.156C105.836 22.3315 105.786 22.5035 105.69 22.6505C105.594 22.7974 105.457 22.9127 105.295 22.9818C105.134 23.0509 104.956 23.0708 104.783 23.0389C104.611 23.007 104.451 22.9247 104.325 22.8025L104.315 22.7924C104.232 22.7091 104.166 22.6098 104.122 22.5004C104.078 22.3911 104.056 22.2739 104.059 22.156C104.032 22.1224 104.011 22.0841 103.998 22.0429H101.015C100.765 22.0425 100.525 22.1414 100.347 22.318C100.17 22.4946 100.069 22.7344 100.068 22.9848C100.068 23.0662 100.079 23.1473 100.099 23.2262C100.322 24.0624 100.781 24.8169 101.42 25.4002C102.374 26.2932 103.632 26.7901 104.938 26.7901C106.245 26.7901 107.502 26.2932 108.456 25.4002C108.928 24.9788 109.304 24.4611 109.56 23.882C109.815 23.3029 109.943 22.6758 109.936 22.0429C109.936 20.5452 109.374 19.3799 108.25 18.5472Z" fill="#1B2A7A"/>
<path d="M118.94 11.9355C119.848 11.9259 120.747 12.1116 121.577 12.48C122.407 12.8484 123.148 13.3909 123.75 14.0707C125.067 15.466 125.784 17.3226 125.745 19.2409V24.6254C125.745 25.1582 125.532 25.6688 125.156 26.0454C124.779 26.4219 124.268 26.6336 123.735 26.6341C123.201 26.6341 122.69 26.4221 122.312 26.0448C121.935 25.6674 121.723 25.1557 121.723 24.622V19.2409C121.744 18.3929 121.456 17.5661 120.913 16.9149C120.681 16.6181 120.384 16.378 120.045 16.2129C119.706 16.0478 119.334 15.962 118.957 15.962C118.58 15.962 118.209 16.0478 117.87 16.2129C117.531 16.378 117.234 16.6181 117.002 16.9149C116.46 17.5629 116.172 18.3861 116.192 19.2308V24.8904C116.19 25.3544 116.004 25.7986 115.675 26.1256C115.346 26.4525 114.9 26.6354 114.436 26.6341H113.908C113.444 26.6341 112.999 26.4498 112.671 26.1219C112.343 25.7939 112.159 25.3492 112.159 24.8854V9.69389C112.159 9.16056 112.37 8.64887 112.747 8.27128C113.123 7.89368 113.634 7.68107 114.168 7.68018C114.432 7.67995 114.694 7.73178 114.938 7.83269C115.182 7.9336 115.404 8.08162 115.591 8.26829C115.778 8.45497 115.926 8.67665 116.028 8.92068C116.129 9.1647 116.181 9.42629 116.182 9.69052V12.56C117.042 12.1469 117.985 11.9334 118.94 11.9355Z" fill="#1B2A7A"/>
<path d="M32.3025 23.8287C33.9156 21.8501 34.785 19.3691 34.7597 16.8164C34.7344 14.2637 33.8161 11.8004 32.1641 9.85419C31.9729 9.62366 31.7327 9.43869 31.461 9.31273C31.1893 9.18677 30.8929 9.12301 30.5934 9.12608C30.2939 9.12915 29.9989 9.19899 29.7299 9.33049C29.4608 9.462 29.2244 9.65186 29.038 9.88626C28.6247 10.3931 28.4019 11.0287 28.4083 11.6827C28.4148 12.3367 28.6501 12.9678 29.0735 13.4664C30.7293 15.3231 30.7614 18.3732 29.141 20.2654C28.7277 20.7727 28.5052 21.4087 28.512 22.063C28.5187 22.7173 28.7544 23.3486 29.1781 23.8472C29.5224 24.2562 30.0144 24.5125 30.5469 24.5603C31.0793 24.608 31.6091 24.4433 32.0206 24.1021C32.1237 24.0159 32.2181 23.9198 32.3025 23.8152V23.8287Z" fill="#5BBCE6"/>
<path d="M37.5638 28.3641C40.2274 25.2481 41.6706 21.1296 41.6267 16.7612C41.5828 12.3928 40.0586 8.31134 37.3309 5.24097C36.9871 4.83147 36.4953 4.57452 35.9628 4.52614C35.4304 4.47776 34.9003 4.64188 34.4884 4.98272C34.3851 5.07052 34.2902 5.16772 34.2048 5.27304C33.7925 5.78077 33.5705 6.41661 33.5773 7.07064C33.5841 7.72467 33.8192 8.35579 34.2419 8.85486C38.136 13.2081 38.1985 20.3751 34.4023 24.8127C33.9886 25.3196 33.7654 25.9554 33.7716 26.6097C33.7778 27.264 34.0128 27.8954 34.4361 28.3945C34.779 28.806 35.2709 29.0649 35.8043 29.1145C36.3376 29.1642 36.8689 29.0006 37.2819 28.6595C37.385 28.5733 37.4794 28.4771 37.5638 28.3725V28.3641Z" fill="#5BBCE6"/>
<path d="M18.4629 14.204H24.0533C24.3007 14.204 24.5457 14.2528 24.7742 14.3474C25.0028 14.4421 25.2104 14.5809 25.3854 14.7558C25.5603 14.9307 25.699 15.1384 25.7937 15.3669C25.8884 15.5955 25.9371 15.8404 25.9371 16.0878V16.2566C25.9569 17.5239 25.7184 18.782 25.2361 19.9541C24.7538 21.1262 24.0378 22.1878 23.1317 23.0742C22.2749 23.9568 21.2527 24.662 20.1233 25.1495C18.9939 25.637 17.7796 25.8973 16.5496 25.9154C15.3197 25.9336 14.0982 25.7094 12.9549 25.2554C11.8116 24.8015 10.769 24.1269 9.88645 23.27C9.81894 23.2058 9.7531 23.14 9.68896 23.0742C7.8924 21.2575 6.88477 18.8056 6.88477 16.2507C6.88477 13.6957 7.8924 11.2438 9.68896 9.42716C10.5497 8.51278 11.5914 7.78767 12.7477 7.29799C13.904 6.80831 15.1497 6.5648 16.4053 6.58298C18.6232 6.58298 20.5329 7.21877 22.1342 8.49036C22.3765 8.6849 22.5713 8.9322 22.7036 9.2134C22.836 9.4946 22.9024 9.80229 22.8978 10.113C22.8933 10.4238 22.8178 10.7294 22.6773 11.0066C22.5368 11.2838 22.3349 11.5253 22.0869 11.7126L22.0599 11.7312C21.6952 12.0036 21.2513 12.149 20.7961 12.145C20.341 12.1411 19.8997 11.988 19.5398 11.7093C18.6347 11.038 17.5319 10.687 16.4053 10.7117C15.6925 10.7028 14.9856 10.8424 14.3297 11.1217C13.6738 11.401 13.0832 11.8138 12.5956 12.3338C11.5817 13.3884 11.0154 14.7945 11.0154 16.2574C11.0154 17.7203 11.5817 19.1264 12.5956 20.181C13.4762 21.0947 14.6554 21.6621 15.9188 21.7801C17.1823 21.8981 18.4461 21.5589 19.4807 20.8241C20.3665 20.2037 21.0457 19.3317 21.4303 18.3209H18.4561C17.9094 18.3205 17.3852 18.103 16.9987 17.7162C16.6122 17.3294 16.3952 16.805 16.3952 16.2583C16.396 15.9876 16.4502 15.7198 16.5546 15.4701C16.659 15.2204 16.8116 14.9937 17.0036 14.8029C17.1956 14.6122 17.4233 14.4611 17.6737 14.3583C17.9241 14.2556 18.1922 14.2031 18.4629 14.204Z" fill="#1B2A7A"/>
<path d="M16.22 3.52091C12.861 3.52091 9.98301 4.73848 7.58614 7.17361C5.18926 9.60875 3.9942 12.5508 4.00095 15.9999C4.00095 19.45 5.19601 22.3921 7.58614 24.8261C9.97626 27.2601 12.8542 28.4754 16.22 28.4721C17.9695 28.4759 19.6988 28.0975 21.2869 27.3633C22.875 26.6292 24.2836 25.5571 25.4142 24.2218C25.6929 23.8931 26.0831 23.6786 26.51 23.6195C26.9369 23.5603 27.3707 23.6606 27.7283 23.9011C28.1127 24.1583 28.3791 24.5576 28.469 25.0112C28.5589 25.4649 28.4649 25.9356 28.2077 26.3199C28.1742 26.3701 28.1381 26.4186 28.0997 26.4651C26.8425 27.9564 25.3174 29.1993 23.603 30.1296C21.3371 31.3667 18.7948 32.0101 16.2132 31.9999C11.8752 31.9999 8.16735 30.4312 5.08967 27.2939C2.01199 24.1566 0.482152 20.3919 0.500157 15.9999C0.500157 11.591 2.03225 7.82516 5.09642 4.70247C8.1606 1.57978 11.8684 0.0122406 16.22 -0.000137616C18.8011 -0.00975783 21.3429 0.632368 23.6098 1.86673C25.3233 2.79971 26.8482 4.04353 28.1064 5.53462C28.253 5.71097 28.3633 5.91448 28.431 6.13351C28.4988 6.35254 28.5227 6.58278 28.5014 6.81106C28.4801 7.03934 28.4139 7.26117 28.3068 7.46385C28.1996 7.66654 28.0535 7.8461 27.8769 7.99227C27.8309 8.03068 27.783 8.06674 27.7334 8.1003C27.3756 8.34034 26.9419 8.44 26.5152 8.38021C26.0886 8.32041 25.6989 8.10536 25.4209 7.77621C24.2899 6.43985 22.8802 5.36698 21.2908 4.63279C19.7014 3.89859 17.9707 3.52083 16.22 3.52598V3.52091Z" fill="#115FAF"/>
</g>
<defs>
<clipPath id="clip0_435_5471">
<rect width="125.245" height="32" fill="white" transform="translate(0.5)"/>
</clipPath>
</defs>
</svg>
