<svg width="18" height="17" viewBox="0 0 18 17" fill="none" xmlns="http://www.w3.org/2000/svg">
<g clip-path="url(#clip0_2065_1527)">
<path d="M17.3194 8.69141C17.3194 8.13183 17.2698 7.60058 17.1848 7.0835H9.18066V10.2781H13.7636C13.5582 11.3264 12.9561 12.2118 12.0636 12.8139V14.9389H14.7977C16.3986 13.4585 17.3194 11.2768 17.3194 8.69141Z" fill="#4285F4"/>
<path d="M9.18073 17C11.4757 17 13.3953 16.235 14.7978 14.9387L12.0636 12.8137C11.2986 13.3237 10.3282 13.6354 9.18073 13.6354C6.96365 13.6354 5.08657 12.1408 4.41365 10.1221H1.59448V12.3108C2.9899 15.0875 5.85865 17 9.18073 17Z" fill="#34A853"/>
<path d="M4.41358 10.1219C4.2365 9.61188 4.14441 9.06646 4.14441 8.4998C4.14441 7.93313 4.24358 7.38771 4.41358 6.87771V4.68896H1.59441C1.01358 5.83646 0.680664 7.12563 0.680664 8.4998C0.680664 9.87396 1.01358 11.1631 1.59441 12.3106L4.41358 10.1219Z" fill="#FBBC05"/>
<path d="M9.18073 3.36458C10.4345 3.36458 11.5536 3.79667 12.4391 4.63959L14.8616 2.21708C13.3953 0.842917 11.4757 0 9.18073 0C5.85865 0 2.9899 1.9125 1.59448 4.68917L4.41365 6.87792C5.08657 4.85917 6.96365 3.36458 9.18073 3.36458Z" fill="#EA4335"/>
</g>
<defs>
<clipPath id="clip0_2065_1527">
<rect width="17" height="17" fill="white" transform="translate(0.5)"/>
</clipPath>
</defs>
</svg>
