<svg width="27" height="27" viewBox="0 0 27 27" fill="none" xmlns="http://www.w3.org/2000/svg">
<path d="M10.3429 20.2996H22V18.3569H10.3429V20.2996ZM10.3429 14.4714H22V12.5287H10.3429V14.4714ZM10.3429 6.70053V8.64325H22V6.70053H10.3429ZM6.45714 6.21484C6.26572 6.21491 6.07619 6.25267 5.89937 6.32598C5.72255 6.39928 5.56189 6.5067 5.42659 6.64209C5.29128 6.77748 5.18396 6.93819 5.11077 7.11505C5.03758 7.29191 4.99994 7.48146 5 7.67286C5.00006 7.86427 5.03783 8.05379 5.11114 8.2306C5.18445 8.40741 5.29187 8.56805 5.42727 8.70335C5.56267 8.83865 5.72339 8.94596 5.90027 9.01914C6.07714 9.09233 6.2667 9.12997 6.45811 9.12991C6.8447 9.12978 7.2154 8.97609 7.48867 8.70266C7.76194 8.42923 7.91539 8.05845 7.91526 7.67189C7.91513 7.28533 7.76143 6.91465 7.48798 6.6414C7.21453 6.36815 6.84373 6.21472 6.45714 6.21484ZM6.45714 12.043C6.26572 12.0431 6.07619 12.0809 5.89937 12.1542C5.72255 12.2275 5.56189 12.3349 5.42659 12.4703C5.29128 12.6057 5.18396 12.7664 5.11077 12.9432C5.03758 13.1201 4.99994 13.3096 5 13.501C5.00006 13.6925 5.03783 13.882 5.11114 14.0588C5.18445 14.2356 5.29187 14.3962 5.42727 14.5315C5.56267 14.6668 5.72339 14.7741 5.90027 14.8473C6.07714 14.9205 6.2667 14.9582 6.45811 14.9581C6.8447 14.958 7.2154 14.8043 7.48867 14.5308C7.76194 14.2574 7.91539 13.8866 7.91526 13.5001C7.91513 13.1135 7.76143 12.7428 7.48798 12.4696C7.21453 12.1963 6.84373 12.0429 6.45714 12.043ZM6.45714 17.8712C6.26572 17.8713 6.07619 17.909 5.89937 17.9823C5.72255 18.0557 5.56189 18.1631 5.42659 18.2985C5.29128 18.4338 5.18396 18.5946 5.11077 18.7714C5.03758 18.9483 4.99994 19.1378 5 19.3292C5.00006 19.5206 5.03783 19.7102 5.11114 19.887C5.18445 20.0638 5.29187 20.2244 5.42727 20.3597C5.56267 20.495 5.72339 20.6023 5.90027 20.6755C6.07714 20.7487 6.2667 20.7863 6.45811 20.7863C6.8447 20.7861 7.2154 20.6325 7.48867 20.359C7.76194 20.0856 7.91539 19.7148 7.91526 19.3283C7.91513 18.9417 7.76143 18.571 7.48798 18.2978C7.21453 18.0245 6.84373 17.8711 6.45714 17.8712Z" fill="#141414"/>
</svg>
