<svg width="27" height="27" viewBox="0 0 27 27" fill="none" xmlns="http://www.w3.org/2000/svg">
<path d="M15.1336 20.7386L15.0135 21.1562H8.9375L9.08989 20.7386C9.69947 20.7232 10.1021 20.6705 10.2991 20.5806C10.6176 20.4521 10.8542 20.2748 11.0054 20.0499C11.2457 19.6953 11.4935 19.0632 11.7475 18.1523L14.3171 8.91445C14.5352 8.14742 14.643 7.56797 14.643 7.1761C14.6486 6.99894 14.5991 6.82461 14.5018 6.67888C14.3916 6.53216 14.2393 6.42553 14.0669 6.37438C13.8773 6.29857 13.5044 6.26131 12.9444 6.26131L13.0757 5.84375H18.7812L18.6622 6.26131C18.1976 6.25361 17.852 6.30628 17.6277 6.41935C17.3212 6.55222 17.0596 6.77619 16.8756 7.06304C16.7096 7.34184 16.4916 7.95855 16.2227 8.91574L13.663 18.1535C13.4313 19.0028 13.3161 19.545 13.3161 19.7788C13.3161 19.9664 13.3582 20.1283 13.4461 20.2645C13.5403 20.393 13.6853 20.4932 13.881 20.569C14.0842 20.6371 14.5018 20.6936 15.1336 20.7386Z" fill="#141414"/>
</svg>
