<svg width="27" height="27" viewBox="0 0 27 27" fill="none" xmlns="http://www.w3.org/2000/svg">
<path d="M9.60209 20.2089H22.0007V18.3014H9.60209V20.2089ZM9.60209 14.4864H22.0007V12.5789H9.60209V14.4864ZM9.60209 6.85647V8.76395H22.0007V6.85647H9.60209ZM5.38177 7.09681C5.48382 7.00525 5.56966 6.9175 5.63833 6.83453C5.62689 7.05198 5.62116 7.29233 5.62116 7.55556V9.71769H6.74181V5.63281H5.74801L4.34505 6.7754L4.91825 7.47926L5.38177 7.09681ZM5.70032 14.5017C6.15335 14.0954 6.44901 13.8197 6.58731 13.6748C6.72655 13.5298 6.83719 13.3915 6.92112 13.2599C7.00504 13.1283 7.06704 12.9948 7.1071 12.8593C7.14715 12.7229 7.16718 12.5751 7.16718 12.4149C7.16718 12.2003 7.10996 12.0076 6.99551 11.835C6.88106 11.6624 6.71988 11.5298 6.51196 11.4373C6.28895 11.3399 6.04758 11.2918 5.80428 11.2961C5.5935 11.2961 5.40466 11.3171 5.23585 11.36C5.06704 11.403 4.91158 11.465 4.76756 11.546C4.6245 11.6271 4.44711 11.7616 4.23633 11.9495L4.84291 12.659C5.00886 12.516 5.15764 12.4073 5.28831 12.3338C5.40661 12.2639 5.54099 12.2258 5.67839 12.2232C5.78353 12.2164 5.88737 12.2494 5.96928 12.3157C6.00392 12.3475 6.03111 12.3866 6.04892 12.4301C6.06672 12.4736 6.0747 12.5205 6.07228 12.5675C6.07228 12.6533 6.05512 12.7353 6.02078 12.8135C5.98645 12.8918 5.92541 12.9852 5.83766 13.0939C5.74992 13.2027 5.56394 13.4068 5.27877 13.7043L4.28115 14.7134V15.4402H7.24539V14.5293H5.70032V14.5017ZM6.20581 19.0281V19.011C6.49861 18.9289 6.72178 18.7964 6.87629 18.6161C7.0308 18.434 7.10805 18.2165 7.10805 17.9628C7.11225 17.8261 7.08131 17.6905 7.01819 17.5691C6.95508 17.4477 6.86189 17.3445 6.74753 17.2694C6.50719 17.1016 6.17529 17.0176 5.75278 17.0176C5.45998 17.0176 5.20056 17.0491 4.97453 17.113C4.74849 17.1769 4.52722 17.2828 4.31072 17.4316L4.76852 18.1688C5.04796 17.9933 5.31787 17.9065 5.5792 17.9065C5.7194 17.9065 5.83003 17.9323 5.91301 17.9847C5.99598 18.0372 6.037 18.1173 6.037 18.2251C6.037 18.5122 5.75659 18.6552 5.19579 18.6552H4.93828V19.485H5.19007C5.39703 19.485 5.56489 19.5002 5.69269 19.5317C5.82145 19.5613 5.91396 19.608 5.97214 19.6681C6.03032 19.7291 6.05893 19.815 6.05893 19.9266C6.05893 20.0715 6.00361 20.1784 5.89298 20.247C5.78235 20.3138 5.6059 20.3481 5.36365 20.3481C5.19062 20.3465 5.01838 20.3244 4.85054 20.2823C4.6608 20.2375 4.47726 20.1696 4.30404 20.0801V20.9967C4.5215 21.0806 4.72464 21.1378 4.91158 21.1702C5.09851 21.2017 5.30261 21.2179 5.52197 21.2179C6.05702 21.2179 6.47381 21.1092 6.77519 20.8908C7.07562 20.6733 7.22631 20.3739 7.22631 19.9943C7.22917 19.4363 6.88773 19.114 6.20581 19.0281Z" fill="#141414"/>
</svg>
