<svg width="25" height="24" viewBox="0 0 25 24" fill="none" xmlns="http://www.w3.org/2000/svg">
<rect x="0.5" width="24" height="24" rx="2" fill="black"/>
<mask id="mask0_541_11202" style="mask-type:luminance" maskUnits="userSpaceOnUse" x="1" y="9" width="22" height="7">
<path d="M22.9998 9.09766H1.98633V15.1395H22.9998V9.09766Z" fill="white"/>
</mask>
<g mask="url(#mask0_541_11202)">
<path d="M6.62513 9.09766C6.14126 9.09753 5.67656 9.28678 5.33044 9.62492L5.51807 9.98142L5.44114 10.0433C5.27855 9.76166 5.04553 9.52708 4.76494 9.3626C4.48434 9.19813 4.16582 9.10941 3.8406 9.10516C2.81986 9.10516 1.99426 9.99831 1.99426 11.0453V13.297C1.99346 13.3162 1.99666 13.3353 2.00364 13.3532C2.01062 13.3711 2.02123 13.3873 2.03481 13.4009C2.04839 13.4145 2.06463 13.4251 2.08252 13.4321C2.10041 13.439 2.11956 13.4422 2.13874 13.4414H2.87803C2.89609 13.4417 2.91401 13.4383 2.93075 13.4315C2.94748 13.4247 2.96268 13.4147 2.97545 13.4019C2.98822 13.3891 2.9983 13.3739 3.00509 13.3572C3.01188 13.3404 3.01525 13.3225 3.015 13.3045V11.0209C3.015 10.5012 3.33023 10.0827 3.86687 10.0827C4.36786 10.0827 4.72625 10.458 4.72625 11.0116V12.8879C4.72497 12.9065 4.72751 12.9252 4.73369 12.9428C4.73989 12.9604 4.7496 12.9765 4.76225 12.9902C4.7749 13.0039 4.79022 13.0149 4.80726 13.0225C4.8243 13.03 4.84269 13.0341 4.86135 13.0343H5.56123C5.57987 13.0341 5.59828 13.03 5.61532 13.0225C5.63236 13.0149 5.64769 13.0039 5.66033 12.9902C5.67298 12.9765 5.68269 12.9604 5.68889 12.9428C5.69508 12.9252 5.6976 12.9065 5.69633 12.8879V11.0116C5.68802 10.8917 5.70464 10.7715 5.74516 10.6584C5.78567 10.5453 5.84919 10.4419 5.93173 10.3546C6.01425 10.2673 6.11397 10.1981 6.2246 10.1513C6.33523 10.1045 6.45436 10.0812 6.57447 10.0827C7.10924 10.0827 7.40757 10.5087 7.40757 11.0209V13.3007C7.40903 13.3379 7.42497 13.373 7.45195 13.3986C7.47895 13.4242 7.51486 13.4382 7.55205 13.4377H8.28384C8.3031 13.4388 8.32237 13.4358 8.34039 13.4289C8.35842 13.422 8.37477 13.4114 8.38842 13.3978C8.40205 13.3842 8.41266 13.3678 8.41954 13.3498C8.42642 13.3317 8.42941 13.3125 8.42832 13.2932V11.0416C8.42832 9.99081 7.63837 9.09766 6.62513 9.09766Z" fill="#0CD18B"/>
<path d="M13.2541 9.18217H12.5824C12.5637 9.18087 12.545 9.18346 12.5274 9.18978C12.5097 9.19611 12.4936 9.20602 12.48 9.2189C12.4665 9.23178 12.4557 9.24734 12.4485 9.2646C12.4412 9.28185 12.4376 9.30043 12.4379 9.31914V9.41109L12.6762 9.78636L12.6106 9.85016C12.4138 9.61827 12.1697 9.43127 11.8945 9.3018C11.6194 9.17232 11.3197 9.10337 11.0156 9.09961C10.4488 9.12649 9.91403 9.37014 9.5218 9.7802C9.12957 10.1903 8.9099 10.7353 8.90821 11.3028C8.90652 11.8702 9.12294 12.4166 9.51273 12.829C9.90252 13.2414 10.4359 13.4882 11.0025 13.5185C11.308 13.5152 11.6092 13.4465 11.886 13.317C12.1627 13.1876 12.4085 13.0003 12.6068 12.7679L12.6631 12.8129L12.4248 13.2032V13.2895C12.4245 13.3086 12.4281 13.3275 12.4353 13.3451C12.4424 13.3628 12.4531 13.3788 12.4665 13.3923C12.48 13.4057 12.496 13.4164 12.5137 13.4235C12.5313 13.4307 12.5502 13.4343 12.5693 13.434H13.2541C13.2734 13.4351 13.2927 13.4321 13.3107 13.4252C13.3287 13.4184 13.3451 13.4077 13.3587 13.3941C13.3724 13.3805 13.383 13.3641 13.3898 13.3461C13.3967 13.3281 13.3997 13.3088 13.3986 13.2895V9.31914C13.3995 9.30027 13.3963 9.28142 13.3893 9.26388C13.3823 9.24634 13.3715 9.23053 13.3578 9.21752C13.3441 9.20452 13.3277 9.19463 13.3098 9.18853C13.2919 9.18243 13.2729 9.18026 13.2541 9.18217ZM11.0025 12.569C10.6686 12.569 10.3483 12.4364 10.1122 12.2002C9.87611 11.9641 9.74346 11.6439 9.74346 11.31C9.74346 10.9761 9.87611 10.6558 10.1122 10.4197C10.3483 10.1836 10.6686 10.0509 11.0025 10.0509C11.3364 10.0509 11.6567 10.1836 11.8928 10.4197C12.1289 10.6558 12.2615 10.9761 12.2615 11.31C12.2615 11.6439 12.1289 11.9641 11.8928 12.2002C11.6567 12.4364 11.3364 12.569 11.0025 12.569Z" fill="#0CD18B"/>
<path d="M22.854 9.18217H22.1823C22.1637 9.18087 22.1449 9.18346 22.1272 9.18978C22.1096 9.19611 22.0936 9.20602 22.08 9.2189C22.0664 9.23178 22.0557 9.24734 22.0484 9.2646C22.0411 9.28185 22.0375 9.30043 22.0378 9.31914V9.41109L22.2761 9.78636L22.2105 9.85016C22.0137 9.61827 21.7695 9.43127 21.4944 9.3018C21.2193 9.17232 20.9196 9.10337 20.6156 9.09961C20.0288 9.09961 19.4662 9.33268 19.0513 9.74756C18.6364 10.1624 18.4033 10.7251 18.4033 11.3118C18.4033 11.8986 18.6364 12.4613 19.0513 12.8761C19.4662 13.291 20.0288 13.5241 20.6156 13.5241C20.921 13.5208 21.2223 13.4521 21.499 13.3227C21.7757 13.1932 22.0215 13.0059 22.2198 12.7735L22.2761 12.8186L22.0378 13.2089V13.2952C22.0375 13.3142 22.0411 13.3331 22.0482 13.3508C22.0555 13.3684 22.0661 13.3844 22.0796 13.3979C22.093 13.4114 22.109 13.422 22.1268 13.4292C22.1444 13.4363 22.1632 13.4399 22.1823 13.4396H22.854C22.8733 13.4407 22.8926 13.4377 22.9106 13.4309C22.9287 13.424 22.945 13.4134 22.9586 13.3997C22.9723 13.3861 22.9829 13.3697 22.9897 13.3517C22.9966 13.3337 22.9996 13.3144 22.9985 13.2952V9.31914C22.9995 9.30027 22.9962 9.28142 22.9892 9.26388C22.9822 9.24634 22.9714 9.23053 22.9577 9.21752C22.944 9.20452 22.9276 9.19463 22.9098 9.18853C22.8919 9.18243 22.8729 9.18026 22.854 9.18217ZM20.6156 12.569C20.2816 12.569 19.9613 12.4364 19.7253 12.2002C19.4892 11.9641 19.3564 11.6439 19.3564 11.31C19.3564 10.9761 19.4892 10.6558 19.7253 10.4197C19.9613 10.1836 20.2816 10.0509 20.6156 10.0509C20.9495 10.0509 21.2697 10.1836 21.5059 10.4197C21.7419 10.6558 21.8745 10.9761 21.8745 11.31C21.8745 11.6439 21.7419 11.9641 21.5059 12.2002C21.2697 12.4364 20.9495 12.569 20.6156 12.569Z" fill="#0CD18B"/>
<path d="M17.8509 9.1828H17.1623C17.0516 9.1828 16.9916 9.24285 16.9916 9.30101V11.3782C17.0014 11.5234 16.9802 11.669 16.9295 11.8055C16.8789 11.9419 16.7999 12.0661 16.6978 12.1698C16.5956 12.2735 16.4727 12.3544 16.3371 12.4072C16.2015 12.4599 16.0561 12.4833 15.9108 12.4758C15.3066 12.4758 14.9163 12.0255 14.9163 11.3782V9.30101C14.9163 9.24285 14.8225 9.1828 14.7625 9.1828H14.0119C13.9814 9.18536 13.9528 9.19863 13.9312 9.22027C13.9095 9.24191 13.8962 9.27052 13.8937 9.30101V11.365C13.8877 11.9045 14.0955 12.4245 14.4717 12.8113C14.8479 13.198 15.3619 13.4201 15.9014 13.429C16.4169 13.4295 16.9148 13.2413 17.3012 12.8999L17.3406 12.9355L17.0347 13.3521V13.5191C17.0347 13.945 16.3949 14.1833 16.0215 14.1833H15.7832C15.7641 14.1821 15.7449 14.1846 15.7267 14.1908C15.7086 14.197 15.6919 14.2068 15.6776 14.2196C15.6632 14.2323 15.6516 14.2478 15.6433 14.2651C15.635 14.2824 15.6303 14.3011 15.6293 14.3203V14.9995C15.6327 15.0377 15.6505 15.0731 15.679 15.0986C15.7076 15.124 15.7449 15.1376 15.7832 15.1365H16.0215C17.1623 15.1365 17.9954 14.4723 17.9954 13.2207V9.30101C17.9904 9.26688 17.9728 9.23586 17.946 9.214C17.9193 9.19215 17.8854 9.18103 17.8509 9.1828Z" fill="#0CD18B"/>
</g>
</svg>
