<svg width="111" height="32" viewBox="0 0 111 32" fill="none" xmlns="http://www.w3.org/2000/svg">
<g clip-path="url(#clip0_435_5506)">
<mask id="mask0_435_5506" style="mask-type:luminance" maskUnits="userSpaceOnUse" x="1" y="0" width="110" height="32">
<path d="M110.404 0.183105H1.09863V31.6111H110.404V0.183105Z" fill="white"/>
</mask>
<g mask="url(#mask0_435_5506)">
<path d="M25.2257 0.183106C22.7088 0.182428 20.2915 1.16684 18.4911 2.92574L19.4671 4.78019L19.0669 5.10228C18.2212 3.63703 17.0091 2.41681 15.5495 1.56128C14.09 0.705734 12.4331 0.244261 10.7414 0.222141C5.43185 0.222141 1.13734 4.86804 1.13734 10.3142V22.0266C1.1332 22.1264 1.14982 22.226 1.18613 22.319C1.22243 22.412 1.27765 22.4966 1.34828 22.5672C1.41891 22.6378 1.5034 22.693 1.59646 22.7293C1.68951 22.7657 1.7891 22.7823 1.8889 22.7781H5.73444C5.82837 22.7794 5.92161 22.7619 6.00865 22.7266C6.09569 22.6912 6.17474 22.6388 6.24117 22.5723C6.30758 22.5059 6.36002 22.4268 6.39536 22.3398C6.4307 22.2528 6.44824 22.1595 6.44693 22.0656V10.1874C6.44693 7.4838 8.08662 5.30725 10.8781 5.30725C13.4841 5.30725 15.3483 7.25929 15.3483 10.1386V19.8988C15.3416 19.9956 15.3549 20.0927 15.387 20.1842C15.4192 20.2757 15.4698 20.3597 15.5356 20.431C15.6013 20.5022 15.681 20.5593 15.7697 20.5987C15.8583 20.6381 15.954 20.659 16.051 20.6601H19.6916C19.7886 20.659 19.8843 20.6381 19.973 20.5987C20.0616 20.5593 20.1413 20.5022 20.2071 20.431C20.2729 20.3597 20.3234 20.2757 20.3556 20.1842C20.3879 20.0927 20.401 19.9956 20.3943 19.8988V10.1386C20.3511 9.51528 20.4376 8.88972 20.6483 8.30158C20.8591 7.71338 21.1895 7.17526 21.6188 6.72125C22.0481 6.26723 22.5668 5.90717 23.1422 5.66378C23.7177 5.4204 24.3374 5.299 24.9622 5.30725C27.7438 5.30725 29.2957 7.52279 29.2957 10.1874V22.0461C29.3033 22.2394 29.3862 22.4221 29.5265 22.5552C29.667 22.6883 29.8538 22.7613 30.0473 22.7586H33.8538C33.9539 22.7642 34.0542 22.7487 34.1479 22.7129C34.2417 22.6772 34.3268 22.622 34.3978 22.551C34.4687 22.4801 34.5238 22.395 34.5596 22.3012C34.5954 22.2074 34.611 22.1072 34.6053 22.007V10.2947C34.6053 4.82899 30.4962 0.183106 25.2257 0.183106Z" fill="#0CD18B"/>
<path d="M59.7078 0.622081H56.2136C56.1165 0.615306 56.019 0.628792 55.9274 0.661681C55.8357 0.694571 55.7519 0.746152 55.6812 0.813143C55.6106 0.880135 55.5546 0.961073 55.5169 1.05084C55.4791 1.1406 55.4605 1.23722 55.462 1.33458V1.81283L56.7016 3.76489L56.36 4.09673C55.3368 2.89052 54.0668 1.91784 52.6355 1.24434C51.2044 0.570842 49.6454 0.212197 48.0638 0.192627C45.1155 0.33245 42.3335 1.59987 40.2933 3.73284C38.253 5.86581 37.1104 8.7012 37.1016 11.6529C37.0928 14.6045 38.2186 17.4466 40.2461 19.5917C42.2737 21.7368 45.048 23.0207 47.9955 23.1781C49.5845 23.161 51.1515 22.8037 52.591 22.1303C54.0305 21.4568 55.3089 20.4829 56.3405 19.2739L56.6333 19.5082L55.3937 21.5383V21.9873C55.3924 22.0863 55.411 22.1847 55.4483 22.2764C55.4855 22.3682 55.5408 22.4516 55.6109 22.5216C55.681 22.5917 55.7643 22.647 55.8561 22.6843C55.9479 22.7216 56.0462 22.7402 56.1453 22.7389H59.7078C59.8079 22.7445 59.9082 22.729 60.0019 22.6932C60.0957 22.6574 60.1808 22.6022 60.2518 22.5313C60.3227 22.4604 60.3779 22.3752 60.4136 22.2815C60.4494 22.1877 60.465 22.0875 60.4593 21.9873V1.33458C60.464 1.23638 60.4475 1.13832 60.4109 1.0471C60.3742 0.955871 60.3183 0.873623 60.2469 0.805977C60.1755 0.738339 60.0905 0.686896 59.9975 0.655159C59.9044 0.623421 59.8055 0.612137 59.7078 0.622081ZM47.9955 18.2394C46.2585 18.2394 44.5927 17.5493 43.3645 16.3211C42.1363 15.0929 41.4463 13.4271 41.4463 11.6902C41.4463 9.95329 42.1363 8.2875 43.3645 7.05929C44.5927 5.83109 46.2585 5.14109 47.9955 5.14109C49.7324 5.14109 51.3982 5.83109 52.6264 7.05929C53.8546 8.2875 54.5446 9.95329 54.5446 11.6902C54.5446 13.4271 53.8546 15.0929 52.6264 16.3211C51.3982 17.5493 49.7324 18.2394 47.9955 18.2394Z" fill="#0CD18B"/>
<path d="M109.642 0.622081H106.148C106.051 0.615306 105.954 0.628792 105.862 0.661681C105.77 0.694571 105.687 0.746152 105.616 0.813143C105.545 0.880135 105.49 0.961073 105.452 1.05084C105.414 1.1406 105.395 1.23722 105.397 1.33458V1.81283L106.636 3.76489L106.295 4.09673C105.271 2.89052 104.001 1.91784 102.57 1.24434C101.139 0.570842 99.58 0.212197 97.9986 0.192627C94.9467 0.192627 92.0198 1.40501 89.8616 3.56306C87.7035 5.7211 86.4912 8.64806 86.4912 11.7C86.4912 14.7519 87.7035 17.6788 89.8616 19.8369C92.0198 21.995 94.9467 23.2073 97.9986 23.2073C99.5874 23.1903 101.155 22.833 102.594 22.1596C104.033 21.4862 105.312 20.5122 106.343 19.3032L106.636 19.5375L105.397 21.5677V22.0165C105.395 22.1157 105.414 22.214 105.451 22.3057C105.489 22.3975 105.544 22.4808 105.614 22.5509C105.684 22.621 105.767 22.6763 105.859 22.7136C105.951 22.7509 106.049 22.7694 106.148 22.7681H109.642C109.743 22.7738 109.843 22.7582 109.937 22.7225C110.031 22.6867 110.115 22.6315 110.186 22.5605C110.258 22.4896 110.313 22.4045 110.348 22.3107C110.384 22.217 110.4 22.1168 110.394 22.0165V1.33458C110.399 1.23638 110.382 1.13832 110.345 1.0471C110.309 0.955871 110.253 0.873623 110.182 0.805977C110.11 0.738339 110.025 0.686896 109.932 0.655159C109.839 0.623421 109.74 0.612137 109.642 0.622081ZM97.9986 18.2394C96.2616 18.2394 94.5954 17.5493 93.3675 16.3211C92.1396 15.0929 91.449 13.4271 91.449 11.6902C91.449 9.95329 92.1396 8.2875 93.3675 7.05929C94.5954 5.83109 96.2616 5.14109 97.9986 5.14109C99.7355 5.14109 101.401 5.83109 102.63 7.05929C103.858 8.2875 104.547 9.95329 104.547 11.6902C104.547 13.4271 103.858 15.0929 102.63 16.3211C101.401 17.5493 99.7355 18.2394 97.9986 18.2394Z" fill="#0CD18B"/>
<path d="M83.6199 0.622539H80.0382C79.4622 0.622539 79.1503 0.934871 79.1503 1.23744V12.0421C79.201 12.7974 79.0908 13.555 78.8274 14.2648C78.5639 14.9746 78.1531 15.6205 77.6218 16.1599C77.0904 16.6995 76.4512 17.1202 75.7457 17.3946C75.0402 17.669 74.2842 17.7908 73.5281 17.7518C70.3853 17.7518 68.3552 15.4094 68.3552 12.0421V1.23744C68.3552 0.934871 67.8672 0.622539 67.5549 0.622539H63.6507C63.4922 0.635826 63.3433 0.70488 63.2307 0.817446C63.1182 0.930004 63.0491 1.0788 63.0358 1.23744V11.9737C63.0045 14.7801 64.0854 17.4849 66.0424 19.4967C67.9993 21.5085 70.6731 22.6638 73.4793 22.71C76.161 22.7125 78.7507 21.7334 80.7608 19.9576L80.9654 20.1431L79.3744 22.3098V23.1785C79.3744 25.3941 76.0464 26.6336 74.104 26.6336H72.8644C72.7649 26.6271 72.6651 26.6403 72.5708 26.6727C72.4764 26.7051 72.3895 26.7559 72.315 26.8222C72.2405 26.8885 72.1799 26.969 72.1368 27.0589C72.0938 27.1489 72.0691 27.2465 72.0641 27.3462V30.8793C72.0815 31.0778 72.174 31.2621 72.3227 31.3945C72.4715 31.527 72.6654 31.5976 72.8644 31.5918H74.104C80.0382 31.5918 84.3716 28.1367 84.3716 21.6267V1.23744C84.3455 1.05988 84.254 0.898525 84.1148 0.784843C83.9757 0.671163 83.7993 0.613303 83.6199 0.622539Z" fill="#0CD18B"/>
</g>
</g>
<defs>
<clipPath id="clip0_435_5506">
<rect width="110.14" height="32" fill="white" transform="translate(0.5)"/>
</clipPath>
</defs>
</svg>
