<svg width="66" height="66" viewBox="0 0 66 66" fill="none" xmlns="http://www.w3.org/2000/svg">
<g clip-path="url(#clip0_92_1587)">
<path d="M47.3947 48.8716C48.8298 41.3175 47.6026 33.4994 43.9218 26.7483C40.241 19.9972 34.3342 14.7305 27.207 11.8446C26.9309 11.733 26.6356 11.6769 26.3379 11.6794C26.0402 11.6819 25.7458 11.7431 25.4717 11.8594C25.1976 11.9756 24.9491 12.1448 24.7404 12.3571C24.5316 12.5694 24.3668 12.8207 24.2552 13.0968C24.1436 13.3728 24.0874 13.6681 24.09 13.9659C24.0925 14.2636 24.1536 14.5579 24.2699 14.832C24.3862 15.1061 24.5553 15.3546 24.7676 15.5634C24.9799 15.7721 25.2313 15.937 25.5073 16.0486C31.6616 18.5411 36.762 23.0893 39.9405 28.919C43.1189 34.7487 44.179 41.4997 42.9403 48.023C42.8846 48.3155 42.887 48.6161 42.9475 48.9076C43.0079 49.1991 43.1252 49.4759 43.2926 49.7221C43.46 49.9684 43.6743 50.1792 43.9232 50.3426C44.172 50.506 44.4507 50.6188 44.7432 50.6745C45.0356 50.7302 45.3362 50.7278 45.6278 50.6674C45.9193 50.6069 46.1961 50.4896 46.4423 50.3222C46.6885 50.1548 46.8994 49.9406 47.0628 49.6917C47.2262 49.4428 47.339 49.1641 47.3947 48.8716ZM38.5594 46.7684C39.4838 41.3985 38.5676 35.8737 35.9592 31.0896C33.3509 26.3055 29.2033 22.5425 24.1887 20.4106C23.6376 20.1877 23.021 20.1902 22.4717 20.4175C21.9224 20.6448 21.4844 21.0788 21.252 21.6259C21.0195 22.1731 21.0113 22.7896 21.229 23.3428C21.4468 23.8959 21.8731 24.3414 22.4161 24.5833C26.4901 26.3156 29.8598 29.3729 31.979 33.2597C34.0981 37.1465 34.8426 41.6351 34.0917 45.998C34.0009 46.5855 34.1445 47.1852 34.4915 47.6678C34.8385 48.1505 35.3612 48.4776 35.947 48.5786C36.5328 48.6796 37.1349 48.5465 37.6235 48.2079C38.1121 47.8693 38.4482 47.3524 38.5594 46.7684ZM29.7158 44.6224C30.1282 41.4539 29.5265 38.2361 27.997 35.4307C26.4674 32.6254 24.0887 30.3765 21.2019 29.0067C20.6582 28.7496 20.0347 28.7189 19.4684 28.9216C18.9021 29.1242 18.4395 29.5434 18.1823 30.0871C17.9252 30.6308 17.8945 31.2544 18.0971 31.8207C18.2998 32.387 18.719 32.8496 19.2627 33.1067C21.2823 34.065 22.9466 35.6383 24.0166 37.6009C25.0867 39.5635 25.5076 41.8147 25.219 44.0314C25.1802 44.3267 25.2 44.6267 25.2771 44.9143C25.3542 45.202 25.4873 45.4716 25.6686 45.7078C25.85 45.944 26.0761 46.1422 26.334 46.2911C26.5919 46.4399 26.8767 46.5365 27.1719 46.5753C27.4672 46.6141 27.7672 46.5944 28.0549 46.5172C28.3425 46.4401 28.6121 46.307 28.8483 46.1257C29.0846 45.9444 29.2828 45.7183 29.4316 45.4603C29.5805 45.2024 29.677 44.9176 29.7158 44.6224Z" fill="white"/>
</g>
<defs>
<clipPath id="clip0_92_1587">
<rect width="48.3659" height="48.3659" fill="white" transform="translate(42.4645) rotate(61.4001)"/>
</clipPath>
</defs>
</svg>
