<svg width="27" height="27" viewBox="0 0 27 27" fill="none" xmlns="http://www.w3.org/2000/svg">
<path d="M21.6122 17.9954C21.7847 17.9656 21.9062 17.8422 21.9062 17.6998C21.9062 12.7819 14.8342 11.7343 13.1915 11.5573V9.30076C13.1915 9.18956 13.1175 9.08786 12.9984 9.03429C12.8777 8.98276 12.7348 8.99022 12.6239 9.05056L5.0656 13.2504C4.96621 13.306 4.90625 13.3982 4.90625 13.5006C4.90625 13.6003 4.96621 13.6932 5.0656 13.7488L12.6198 17.948C12.7323 18.009 12.8769 18.0158 12.9952 17.9636C13.1151 17.9107 13.189 17.8083 13.189 17.6964V15.269C14.3775 15.2751 15.3615 15.3185 16.1804 15.3998C20.1107 15.7843 21.1613 17.7323 21.204 17.8157C21.2623 17.9276 21.3954 17.9995 21.5407 17.9995C21.5654 18.0008 21.59 17.9995 21.6122 17.9954Z" fill="#1F1E25"/>
</svg>
