<svg width="1086" height="230" viewBox="0 0 1086 230" fill="none" xmlns="http://www.w3.org/2000/svg">
<g clip-path="url(#clip0_1984_26242)">
<path d="M954.703 30.717L968.387 34.3836M957.269 21.1382L970.953 24.8048M959.836 11.5595L973.52 15.2261M948.889 8.62619L949.89 10.3613L955.096 7.35605M946.322 18.205L947.324 19.94L952.529 16.9348M943.756 27.7837L944.757 29.5188L949.962 26.5136" stroke="black" stroke-width="1.5" stroke-linecap="round" stroke-linejoin="round"/>
</g>
<g clip-path="url(#clip1_1984_26242)">
<path d="M8.47852 117.018L33.0159 102.851M19.0527 123.999L21.5064 122.583M24.5736 120.812L29.481 117.979" stroke="black" stroke-width="1.5" stroke-miterlimit="10" stroke-linecap="round" stroke-linejoin="round"/>
<path d="M10.3838 107.739L24.0143 99.869C28.382 97.3473 30.0972 97.7965 32.5835 102.103L38.3989 112.175C40.8852 116.482 40.4166 118.192 36.0612 120.706L22.4184 128.583C18.0701 131.11 16.3549 130.661 13.8686 126.354L8.04611 116.27C5.55986 111.963 6.02844 110.253 10.3838 107.739Z" stroke="black" stroke-width="1.5" stroke-linecap="round" stroke-linejoin="round"/>
</g>
<path d="M1059.12 212.903C1065.21 208.199 1073.13 208.199 1079.23 212.903M1055 207.972C1063.59 201.342 1074.75 201.342 1083.33 207.972M1061.79 218.073C1066.25 214.617 1072.07 214.617 1076.53 218.073M1065.48 223.258C1067.72 221.53 1070.63 221.53 1072.86 223.258" stroke="black" stroke-width="1.5" stroke-linecap="round" stroke-linejoin="round"/>
<defs>
<clipPath id="clip0_1984_26242">
<rect width="34" height="34" fill="white" transform="translate(946.8) rotate(15)"/>
</clipPath>
<clipPath id="clip1_1984_26242">
<rect width="34" height="34" fill="white" transform="translate(0 108) rotate(-30)"/>
</clipPath>
</defs>
</svg>
