<svg width="12" height="13" viewBox="0 0 12 13" fill="none" xmlns="http://www.w3.org/2000/svg">
<mask id="mask0_2282_7014" style="mask-type:alpha" maskUnits="userSpaceOnUse" x="0" y="0" width="12" height="13">
<rect y="0.5" width="12" height="12" fill="#D9D9D9"/>
</mask>
<g mask="url(#mask0_2282_7014)">
<path d="M4.6251 11.5L4.4251 9.9C4.31676 9.85833 4.21468 9.80833 4.11885 9.75C4.02301 9.69167 3.92926 9.62917 3.8376 9.5625L2.3501 10.1875L0.975098 7.8125L2.2626 6.8375C2.25426 6.77917 2.2501 6.72292 2.2501 6.66875V6.33125C2.2501 6.27708 2.25426 6.22083 2.2626 6.1625L0.975098 5.1875L2.3501 2.8125L3.8376 3.4375C3.92926 3.37083 4.0251 3.30833 4.1251 3.25C4.2251 3.19167 4.3251 3.14167 4.4251 3.1L4.6251 1.5H7.3751L7.5751 3.1C7.68343 3.14167 7.78551 3.19167 7.88135 3.25C7.97718 3.30833 8.07093 3.37083 8.1626 3.4375L9.6501 2.8125L11.0251 5.1875L9.7376 6.1625C9.74593 6.22083 9.7501 6.27708 9.7501 6.33125V6.66875C9.7501 6.72292 9.74176 6.77917 9.7251 6.8375L11.0126 7.8125L9.6376 10.1875L8.1626 9.5625C8.07093 9.62917 7.9751 9.69167 7.8751 9.75C7.7751 9.80833 7.6751 9.85833 7.5751 9.9L7.3751 11.5H4.6251ZM6.0251 8.25C6.50843 8.25 6.92093 8.07917 7.2626 7.7375C7.60426 7.39583 7.7751 6.98333 7.7751 6.5C7.7751 6.01667 7.60426 5.60417 7.2626 5.2625C6.92093 4.92083 6.50843 4.75 6.0251 4.75C5.53343 4.75 5.11885 4.92083 4.78135 5.2625C4.44385 5.60417 4.2751 6.01667 4.2751 6.5C4.2751 6.98333 4.44385 7.39583 4.78135 7.7375C5.11885 8.07917 5.53343 8.25 6.0251 8.25ZM6.0251 7.25C5.81676 7.25 5.63968 7.17708 5.49385 7.03125C5.34801 6.88542 5.2751 6.70833 5.2751 6.5C5.2751 6.29167 5.34801 6.11458 5.49385 5.96875C5.63968 5.82292 5.81676 5.75 6.0251 5.75C6.23343 5.75 6.41051 5.82292 6.55635 5.96875C6.70218 6.11458 6.7751 6.29167 6.7751 6.5C6.7751 6.70833 6.70218 6.88542 6.55635 7.03125C6.41051 7.17708 6.23343 7.25 6.0251 7.25ZM5.5001 10.5H6.4876L6.6626 9.175C6.92093 9.10833 7.16051 9.01042 7.38135 8.88125C7.60218 8.75208 7.80426 8.59583 7.9876 8.4125L9.2251 8.925L9.7126 8.075L8.6376 7.2625C8.67926 7.14583 8.70843 7.02292 8.7251 6.89375C8.74176 6.76458 8.7501 6.63333 8.7501 6.5C8.7501 6.36667 8.74176 6.23542 8.7251 6.10625C8.70843 5.97708 8.67926 5.85417 8.6376 5.7375L9.7126 4.925L9.2251 4.075L7.9876 4.6C7.80426 4.40833 7.60218 4.24792 7.38135 4.11875C7.16051 3.98958 6.92093 3.89167 6.6626 3.825L6.5001 2.5H5.5126L5.3376 3.825C5.07926 3.89167 4.83968 3.98958 4.61885 4.11875C4.39801 4.24792 4.19593 4.40417 4.0126 4.5875L2.7751 4.075L2.2876 4.925L3.3626 5.725C3.32093 5.85 3.29176 5.975 3.2751 6.1C3.25843 6.225 3.2501 6.35833 3.2501 6.5C3.2501 6.63333 3.25843 6.7625 3.2751 6.8875C3.29176 7.0125 3.32093 7.1375 3.3626 7.2625L2.2876 8.075L2.7751 8.925L4.0126 8.4C4.19593 8.59167 4.39801 8.75208 4.61885 8.88125C4.83968 9.01042 5.07926 9.10833 5.3376 9.175L5.5001 10.5Z" fill="#19A733"/>
</g>
</svg>
