<svg width="90" height="91" viewBox="0 0 90 91" fill="none" xmlns="http://www.w3.org/2000/svg">
<g clip-path="url(#clip0_1_8814)">
<path d="M88.9494 3.93301C88.1675 3.303 87.0875 3.13987 86.1425 3.51113L1.76619 37.2617C0.725549 37.6779 0.0280379 38.6735 -8.75788e-05 39.7986C-0.028213 40.9236 0.613047 41.953 1.63681 42.4255L28.1254 54.6544L87.1888 6.12117L39.3755 59.8464V87.6849L59.3333 69.0603L74.7573 76.176C75.1342 76.3448 75.5392 76.4348 75.9386 76.4348C76.3886 76.4348 76.8442 76.3223 77.2492 76.1085C78.0311 75.6979 78.5655 74.9497 78.7118 74.0835L89.9619 6.58243C90.1251 5.58679 89.7426 4.56865 88.9494 3.93301Z" fill="#0033A1"/>
</g>
<defs>
<clipPath id="clip0_1_8814">
<rect width="90" height="90" fill="white" transform="translate(-0.000976562 0.5)"/>
</clipPath>
</defs>
</svg>
