<svg width="17" height="16" viewBox="0 0 17 16" fill="none" xmlns="http://www.w3.org/2000/svg">
<g clip-path="url(#clip0_2352_24267)">
<path d="M8.50033 4.00033C11.027 4.00033 13.2803 5.42033 14.3803 7.66699C13.2803 9.91366 11.027 11.3337 8.50033 11.3337C5.97366 11.3337 3.72033 9.91366 2.62033 7.66699C3.72033 5.42033 5.97366 4.00033 8.50033 4.00033ZM8.50033 2.66699C5.16699 2.66699 2.32033 4.74033 1.16699 7.66699C2.32033 10.5937 5.16699 12.667 8.50033 12.667C11.8337 12.667 14.6803 10.5937 15.8337 7.66699C14.6803 4.74033 11.8337 2.66699 8.50033 2.66699ZM8.50033 6.00033C9.42033 6.00033 10.167 6.74699 10.167 7.66699C10.167 8.58699 9.42033 9.33366 8.50033 9.33366C7.58033 9.33366 6.83366 8.58699 6.83366 7.66699C6.83366 6.74699 7.58033 6.00033 8.50033 6.00033ZM8.50033 4.66699C6.84699 4.66699 5.50033 6.01366 5.50033 7.66699C5.50033 9.32033 6.84699 10.667 8.50033 10.667C10.1537 10.667 11.5003 9.32033 11.5003 7.66699C11.5003 6.01366 10.1537 4.66699 8.50033 4.66699Z" fill="white"/>
</g>
<defs>
<clipPath id="clip0_2352_24267">
<rect width="16" height="16" fill="white" transform="translate(0.5)"/>
</clipPath>
</defs>
</svg>
