<svg width="52" height="30" viewBox="0 0 52 30" fill="none" xmlns="http://www.w3.org/2000/svg">
<rect x="1.09082" y="0.924316" width="49.4545" height="28.1515" rx="1.5" fill="white" stroke="#DDE1E5"/>
<g clip-path="url(#clip0_435_5385)">
<path d="M23.4985 22.3422H19.9639L22.1747 8.67212H25.7091L23.4985 22.3422Z" fill="#00579F"/>
<path d="M36.3119 9.0063C35.6148 8.72971 34.509 8.42432 33.1417 8.42432C29.6511 8.42432 27.193 10.2857 27.178 12.9468C27.149 14.9103 28.9378 16.0008 30.2758 16.6555C31.6433 17.3244 32.1081 17.7611 32.1081 18.3573C32.0942 19.2731 31.0031 19.6953 29.9855 19.6953C28.5743 19.6953 27.8181 19.4776 26.669 18.9681L26.2036 18.7497L25.709 21.8183C26.538 22.196 28.0653 22.5312 29.6511 22.5459C33.3599 22.5459 35.7744 20.7133 35.803 17.8774C35.8171 16.3213 34.8725 15.1289 32.8361 14.1545C31.5998 13.529 30.8427 13.1073 30.8427 12.4673C30.8572 11.8855 31.4831 11.2896 32.8786 11.2896C34.0277 11.2604 34.872 11.5366 35.5115 11.813L35.8312 11.9582L36.3119 9.0063Z" fill="#00579F"/>
<path d="M41.0097 17.4994C41.3008 16.714 42.4209 13.6746 42.4209 13.6746C42.4062 13.7038 42.7114 12.8748 42.8859 12.3658L43.1329 13.5437C43.1329 13.5437 43.8023 16.8159 43.9477 17.4994C43.3952 17.4994 41.7078 17.4994 41.0097 17.4994ZM45.3728 8.67212H42.6387C41.7956 8.67212 41.155 8.91914 40.7913 9.80633L35.541 22.342H39.2498C39.2498 22.342 39.8604 20.6548 39.9916 20.2914C40.3985 20.2914 44.0064 20.2914 44.5298 20.2914C44.6313 20.7713 44.9516 22.342 44.9516 22.342H48.2243L45.3728 8.67212Z" fill="#00579F"/>
<path d="M17.0119 8.67212L13.5503 17.9938L13.172 16.1032C12.5321 13.9218 10.525 11.5517 8.28516 10.3732L11.4558 22.3277H15.1936L20.7495 8.67212H17.0119Z" fill="#00579F"/>
<path d="M10.3359 8.67212H4.649L4.59082 8.94833C9.02695 10.0827 11.9649 12.8172 13.172 16.1038L11.9357 9.82121C11.7322 8.94813 11.1067 8.70092 10.3359 8.67212Z" fill="#FAA61A"/>
</g>
<defs>
<clipPath id="clip0_435_5385">
<rect width="43.6338" height="14.1216" fill="white" transform="translate(4.59082 8.42432)"/>
</clipPath>
</defs>
</svg>
